<svg width="245" height="27" viewBox="0 0 245 27" fill="none" xmlns="http://www.w3.org/2000/svg">
<path d="M84.1666 1.00317V11.1767H82.9019L77.1454 2.56469V11.1767H76.0552V1.00317H77.3199L83.0764 9.56785V1.00317H84.1666Z" fill="white"/>
<path d="M88.7892 10.2822C89.5742 10.2822 90.1411 9.99832 90.6208 9.43051C91.0569 8.91002 91.275 8.20027 91.275 7.34856C91.275 6.49685 91.0569 5.83441 90.6208 5.2666C90.1847 4.6988 89.5742 4.4149 88.7892 4.4149C88.0479 4.4149 87.4373 4.6988 86.9576 5.2666C86.5215 5.78709 86.3035 6.49685 86.3035 7.34856C86.3035 8.20027 86.5215 8.86271 86.9576 9.43051C87.4373 9.99832 88.0479 10.2822 88.7892 10.2822ZM91.1878 9.99832C90.6208 10.8973 89.7922 11.3705 88.6584 11.3705C87.6554 11.3705 86.8268 10.992 86.1726 10.2349C85.5621 9.47783 85.2568 8.53149 85.2568 7.44319C85.2568 6.30758 85.5621 5.40856 86.1726 4.65148C86.8268 3.89441 87.6554 3.51587 88.7456 3.51587C89.7923 3.51587 90.6208 3.98904 91.2314 4.88807V3.65782H92.278V11.3232H91.2314V9.99832H91.1878Z" fill="white"/>
<path d="M94.7201 11.1992V4.52737H93.281V3.5337H94.7201V0.741943H95.8104V3.5337H97.4239V4.52737H95.8104V11.1992H94.7201Z" fill="white"/>
<path d="M98.4268 3.53713H99.4734V11.2028H98.4268V3.53713ZM99.5606 2.2122H98.4268V0.697998H99.5606V2.2122Z" fill="white"/>
<path d="M104.271 10.2824C105.056 10.2824 105.623 9.99847 106.102 9.43064C106.538 8.91013 106.757 8.20035 106.757 7.34861C106.757 6.49687 106.538 5.83441 106.102 5.26658C105.666 4.69875 105.056 4.41484 104.271 4.41484C103.486 4.41484 102.919 4.69875 102.439 5.26658C102.003 5.78709 101.785 6.49687 101.785 7.34861C101.785 8.20035 102.003 8.86281 102.439 9.43064C102.919 9.99847 103.529 10.2824 104.271 10.2824ZM104.271 3.42114C105.317 3.42114 106.19 3.79969 106.844 4.5568C107.454 5.3139 107.76 6.21296 107.76 7.34861C107.76 8.48426 107.454 9.43064 106.844 10.1404C106.19 10.8975 105.317 11.2761 104.271 11.2761C103.224 11.2761 102.352 10.8975 101.698 10.1404C101.087 9.38332 100.782 8.48426 100.782 7.34861C100.782 6.21296 101.087 5.26658 101.698 4.5568C102.352 3.79969 103.224 3.42114 104.271 3.42114Z" fill="white"/>
<path d="M110.115 3.5631V4.74606C110.377 4.36751 110.682 4.0836 111.031 3.79969C111.38 3.5631 111.816 3.42114 112.295 3.42114C112.775 3.42114 113.168 3.51578 113.516 3.65773C113.865 3.79969 114.171 4.03628 114.389 4.32019C114.956 4.93533 115.261 5.78706 115.261 6.78075V11.276H114.214V6.82807C114.214 6.11829 114.04 5.55047 113.647 5.12461C113.298 4.69874 112.819 4.50947 112.208 4.50947C111.598 4.50947 111.118 4.74606 110.682 5.17192C110.246 5.59779 110.071 6.16561 110.071 6.87539V11.3233H109.025V3.5631H110.115Z" fill="white"/>
<path d="M119.796 10.2749C120.581 10.2749 121.148 9.99101 121.628 9.42318C122.064 8.90268 122.282 8.19289 122.282 7.34115C122.282 6.4894 122.064 5.82694 121.628 5.25911C121.191 4.69128 120.581 4.40736 119.796 4.40736C119.055 4.40736 118.444 4.69128 117.964 5.25911C117.528 5.77962 117.31 6.4894 117.31 7.34115C117.31 8.19289 117.528 8.85536 117.964 9.42318C118.4 9.99101 119.011 10.2749 119.796 10.2749ZM122.151 9.99101C121.584 10.8901 120.755 11.3633 119.622 11.3633C118.619 11.3633 117.79 10.9847 117.136 10.2276C116.525 9.4705 116.22 8.52412 116.22 7.43578C116.22 6.30013 116.525 5.40106 117.136 4.64396C117.79 3.88685 118.619 3.5083 119.709 3.5083C120.755 3.5083 121.584 3.98149 122.195 4.88055V3.65026H123.241V11.3159H122.195V9.99101H122.151Z" fill="white"/>
<path d="M125.989 0.47998H124.942V11.2213H125.989V0.47998Z" fill="white"/>
<path d="M131.832 1.00317H130.785V11.1767H131.832V1.00317Z" fill="white"/>
<path d="M134.841 3.5631V4.74606C135.103 4.36751 135.408 4.0836 135.757 3.79969C136.106 3.5631 136.542 3.42114 137.022 3.42114C137.501 3.42114 137.894 3.51578 138.243 3.65773C138.592 3.79969 138.897 4.03628 139.115 4.32019C139.682 4.93533 139.987 5.78706 139.987 6.78075V11.276H138.941V6.82807C138.941 6.11829 138.766 5.55047 138.374 5.12461C138.025 4.69874 137.545 4.50947 136.934 4.50947C136.324 4.50947 135.844 4.74606 135.408 5.17192C134.972 5.59779 134.798 6.16561 134.798 6.87539V11.3233H133.751V3.5631H134.841Z" fill="white"/>
<path d="M145.831 5.59034C145.743 4.78592 145.133 4.40736 144.043 4.40736C142.952 4.40736 142.386 4.78592 142.386 5.4957C142.386 5.77962 142.516 6.01621 142.734 6.20549C142.952 6.34745 143.258 6.4894 143.607 6.58404C143.955 6.67868 144.348 6.77332 144.74 6.86795C145.133 6.96259 145.525 7.05723 145.874 7.24651C146.223 7.38847 146.528 7.62506 146.747 7.90897C146.965 8.19289 147.095 8.57144 147.095 9.04463C147.095 9.80174 146.834 10.3696 146.31 10.7481C145.787 11.1267 145.089 11.3633 144.217 11.3633C143.258 11.3633 142.516 11.1267 141.949 10.6062C141.426 10.133 141.164 9.56514 141.121 8.85536H142.211C142.298 9.56514 142.647 10.0383 143.301 10.2749C143.563 10.3696 143.781 10.4169 144.043 10.4169C144.304 10.4169 144.522 10.4169 144.697 10.3696C144.915 10.3222 145.089 10.2749 145.307 10.1803C145.743 9.99101 146.005 9.65978 146.005 9.18659C146.005 8.85536 145.874 8.61876 145.656 8.4768C145.438 8.28753 145.133 8.19289 144.784 8.05093C144.435 7.95629 144.043 7.86166 143.65 7.76702C143.258 7.67238 142.865 7.57774 142.516 7.38847C142.167 7.24651 141.862 7.00991 141.644 6.77332C141.426 6.4894 141.295 6.15817 141.295 5.68498C141.295 4.97519 141.513 4.45468 141.993 4.07613C142.473 3.69758 143.171 3.5083 144.086 3.5083C144.959 3.5083 145.656 3.7449 146.136 4.17077C146.572 4.54932 146.79 5.06983 146.877 5.68498H145.831V5.59034Z" fill="white"/>
<path d="M149.101 11.1992V4.52737H147.662V3.5337H149.101V0.741943H150.148V3.5337H151.805V4.52737H150.148V11.1992H149.101Z" fill="white"/>
<path d="M152.808 3.53713H153.855V11.2028H152.808V3.53713ZM153.942 2.2122H152.808V0.697998H153.942V2.2122Z" fill="white"/>
<path d="M156.341 11.1992V4.52737H154.902V3.5337H156.341V0.741943H157.388V3.5337H159.045V4.52737H157.388V11.1992H156.341Z" fill="white"/>
<path d="M165.15 11.2287V10.0458C164.889 10.4243 164.583 10.7082 164.235 10.9921C163.886 11.2287 163.45 11.3707 162.97 11.3707C162.49 11.3707 162.098 11.276 161.749 11.1341C161.4 10.9921 161.095 10.7555 160.877 10.4716C160.31 9.85648 160.004 9.00475 160.004 8.01107V3.51582H161.051V7.96375C161.051 8.67352 161.225 9.24134 161.618 9.66721C161.967 10.0931 162.447 10.2823 163.057 10.2823C163.668 10.2823 164.147 10.0458 164.583 9.61989C165.02 9.19402 165.194 8.6262 165.194 7.91643V3.46851H166.241V11.1341H165.15V11.2287Z" fill="white"/>
<path d="M168.683 11.1992V4.52737H167.243V3.5337H168.683V0.741943H169.773V3.5337H171.386V4.52737H169.773V11.1992H168.683Z" fill="white"/>
<path d="M175.355 4.46221C174.701 4.46221 174.134 4.6988 173.697 5.12465C173.261 5.55051 173.043 6.071 172.913 6.78075H177.71C177.622 6.11831 177.361 5.55051 176.925 5.12465C176.532 4.6988 175.965 4.46221 175.355 4.46221ZM175.398 10.2822C176.358 10.2822 177.055 9.85637 177.448 9.00466H178.625C178.364 9.71441 177.971 10.2822 177.448 10.7081C176.925 11.1339 176.227 11.3705 175.398 11.3705C174.352 11.3705 173.479 10.992 172.782 10.2349C172.128 9.47783 171.822 8.53149 171.822 7.44319C171.822 6.30758 172.128 5.36124 172.738 4.65148C173.392 3.89441 174.264 3.51587 175.311 3.51587C176.358 3.51587 177.23 3.89441 177.884 4.65148C178.495 5.40856 178.8 6.30758 178.8 7.44319V7.91636H172.869C172.956 8.62612 173.218 9.19393 173.654 9.6671C174.134 10.0456 174.701 10.2822 175.398 10.2822Z" fill="white"/>
<path d="M185.908 1.43382C185.428 1.43382 185.036 1.57578 184.774 1.81237C184.513 2.04896 184.382 2.4275 184.382 2.99532V3.56314H186.039V4.55682H184.425V11.2287H183.379V4.55682H182.158V3.56314H183.379V2.90069C183.379 2.04896 183.597 1.43382 184.077 1.00796C184.556 0.582096 185.167 0.392822 185.995 0.392822H186.083V1.48114H185.908V1.43382Z" fill="white"/>
<path d="M190.008 10.2824C190.793 10.2824 191.36 9.99847 191.839 9.43064C192.276 8.91013 192.494 8.20035 192.494 7.34861C192.494 6.49687 192.276 5.83441 191.839 5.26658C191.403 4.69875 190.793 4.41484 190.008 4.41484C189.223 4.41484 188.656 4.69875 188.176 5.26658C187.74 5.78709 187.522 6.49687 187.522 7.34861C187.522 8.20035 187.74 8.86281 188.176 9.43064C188.656 9.99847 189.266 10.2824 190.008 10.2824ZM190.008 3.42114C191.054 3.42114 191.927 3.79969 192.581 4.5568C193.191 5.3139 193.497 6.21296 193.497 7.34861C193.497 8.48426 193.191 9.43064 192.581 10.1404C191.927 10.8975 191.054 11.2761 190.008 11.2761C188.961 11.2761 188.089 10.8975 187.435 10.1404C186.824 9.38332 186.519 8.48426 186.519 7.34861C186.519 6.21296 186.824 5.26658 187.435 4.5568C188.089 3.79969 188.961 3.42114 190.008 3.42114Z" fill="white"/>
<path d="M198.512 3.42114V4.55676H198.381C197.596 4.55676 196.985 4.88799 196.506 5.55043C196.07 6.16556 195.808 6.92264 195.808 7.82167V11.1812H194.761V3.56309H195.808V5.45579C196.026 4.6514 196.506 4.08359 197.291 3.70505C197.596 3.5631 197.988 3.46846 198.424 3.46846H198.512V3.42114Z" fill="white"/>
<path d="M82.5966 15.5349V20.0302H77.1454V15.5349H76.0552V25.7084H77.1454V21.1658H82.5966V25.7084H83.6433V15.5349H82.5966Z" fill="white"/>
<path d="M88.5276 18.942C87.8735 18.942 87.3501 19.1786 86.8704 19.6044C86.4343 20.0303 86.2163 20.5508 86.0855 21.2605H90.8825C90.7953 20.5981 90.5337 20.0303 90.0976 19.6044C89.7051 19.1786 89.1818 18.942 88.5276 18.942ZM88.6148 24.7621C89.5742 24.7621 90.272 24.3362 90.6645 23.4845H91.8419C91.5803 24.1942 91.1878 24.7621 90.6645 25.1879C90.1412 25.6138 89.4434 25.8504 88.6148 25.8504C87.5682 25.8504 86.696 25.4718 85.9982 24.7147C85.3441 23.9576 85.0388 23.0113 85.0388 21.923C85.0388 20.7874 85.3441 19.841 85.9546 19.1312C86.6088 18.3741 87.481 17.9956 88.5276 17.9956C89.5742 17.9956 90.4464 18.3741 91.1006 19.1312C91.7111 19.8883 92.0164 20.7874 92.0164 21.923V22.3962H86.0855C86.1727 23.1059 86.4343 23.6737 86.8704 24.1469C87.3065 24.5728 87.9171 24.7621 88.6148 24.7621Z" fill="white"/>
<path d="M96.3332 24.7618C97.1182 24.7618 97.6851 24.4779 98.1648 23.9101C98.6009 23.3896 98.8189 22.6798 98.8189 21.8281C98.8189 20.9764 98.6009 20.3139 98.1648 19.7461C97.7287 19.1783 97.1182 18.8944 96.3332 18.8944C95.5918 18.8944 94.9813 19.1783 94.5016 19.7461C94.0655 20.2666 93.8474 20.9764 93.8474 21.8281C93.8474 22.6798 94.0655 23.3423 94.5016 23.9101C94.9377 24.4779 95.5482 24.7618 96.3332 24.7618ZM98.7317 24.4779C98.1648 25.377 97.3362 25.8502 96.2024 25.8502C95.1993 25.8502 94.3707 25.4716 93.7166 24.7145C93.1061 23.9574 92.8008 23.0111 92.8008 21.9228C92.8008 20.7871 93.1061 19.8881 93.7166 19.131C94.3707 18.3739 95.1993 17.9954 96.2896 17.9954C97.3798 17.9954 98.1648 18.4685 98.7753 19.3676V18.1373H99.822V25.8028H98.7753V24.4779H98.7317Z" fill="white"/>
<path d="M102.526 14.967H101.479V25.7085H102.526V14.967Z" fill="white"/>
<path d="M105.012 15.2505V18.0423H103.573V19.036H105.012V25.708H106.059V19.036H107.672V18.0423H106.059V15.2505H105.012Z" fill="white"/>
<path d="M109.766 14.967V19.2257C110.027 18.8472 110.332 18.5633 110.681 18.2794C111.03 18.0428 111.466 17.9008 111.946 17.9008C112.426 17.9008 112.818 17.9954 113.167 18.1374C113.516 18.2794 113.821 18.516 114.039 18.7999C114.606 19.415 114.911 20.2667 114.911 21.2604V25.7557H113.865V21.3078C113.865 20.598 113.69 20.0301 113.298 19.6043C112.949 19.1784 112.469 18.9891 111.859 18.9891C111.248 18.9891 110.769 19.2257 110.332 19.6516C109.896 20.0775 109.722 20.6453 109.722 21.3551V25.803H108.675V14.967H109.766Z" fill="white"/>
<path d="M122.587 24.7621C123.372 24.7621 123.939 24.4782 124.419 23.9104C124.855 23.3899 125.073 22.6801 125.073 21.8284C125.073 20.9766 124.855 20.3142 124.419 19.7464C123.983 19.1786 123.372 18.8946 122.587 18.8946C121.846 18.8946 121.235 19.1786 120.755 19.7464C120.319 20.2669 120.101 20.9766 120.101 21.8284C120.101 22.6801 120.319 23.3425 120.755 23.9104C121.235 24.4782 121.846 24.7621 122.587 24.7621ZM124.986 24.4782C124.419 25.3772 123.59 25.8504 122.456 25.8504C121.453 25.8504 120.625 25.4719 119.97 24.7148C119.36 23.9577 119.055 23.0113 119.055 21.923C119.055 20.7874 119.36 19.8883 119.97 19.1312C120.625 18.3742 121.453 17.9956 122.543 17.9956C123.59 17.9956 124.419 18.4688 124.986 19.3678V18.1376H126.032V25.8031H124.986V24.4782Z" fill="white"/>
<path d="M128.517 18.0428V19.2258C128.779 18.8473 129.084 18.5633 129.433 18.2794C129.782 18.0428 130.218 17.9009 130.698 17.9009C131.178 17.9009 131.57 17.9955 131.919 18.1375C132.268 18.2794 132.573 18.516 132.791 18.7999C133.358 19.4151 133.663 20.2668 133.663 21.2606V25.7559H132.617V21.3079C132.617 20.5981 132.442 20.0303 132.05 19.6044C131.701 19.1785 131.221 18.9892 130.611 18.9892C130 18.9892 129.521 19.2258 129.084 19.6517C128.648 20.0776 128.474 20.6454 128.474 21.3552V25.8032H127.427V18.0428H128.517Z" fill="white"/>
<path d="M138.199 24.7544C138.984 24.7544 139.551 24.4705 140.031 23.9027C140.467 23.3822 140.685 22.6724 140.685 21.8207C140.685 20.969 140.467 20.3065 140.031 19.7387C139.595 19.1709 138.984 18.887 138.199 18.887C137.458 18.887 136.847 19.1709 136.368 19.7387C135.932 20.2592 135.714 20.969 135.714 21.8207C135.714 22.6724 135.932 23.3349 136.368 23.9027C136.847 24.4705 137.458 24.7544 138.199 24.7544ZM140.598 24.4705C140.031 25.3696 139.202 25.8428 138.069 25.8428C137.066 25.8428 136.237 25.4642 135.583 24.7071C134.972 23.95 134.667 23.0037 134.667 21.9153C134.667 20.7797 134.972 19.8807 135.583 19.1236C136.237 18.3665 137.066 17.9879 138.156 17.9879C139.202 17.9879 140.031 18.4611 140.642 19.3602V15.0542H141.688V25.7954H140.642V24.4705H140.598Z" fill="white"/>
<path d="M150.89 24.6774C151.544 24.6774 152.155 24.4881 152.634 24.1095C153.158 23.731 153.507 23.2578 153.768 22.6427H154.902C154.597 23.5891 154.073 24.3461 153.376 24.914C152.591 25.5291 151.719 25.813 150.672 25.813C149.32 25.813 148.186 25.2925 147.358 24.2988C146.573 23.3051 146.136 22.0749 146.136 20.608C146.136 19.1412 146.529 17.9109 147.358 16.9172C148.186 15.9236 149.32 15.4031 150.672 15.4031C151.719 15.4031 152.591 15.687 153.376 16.3021C154.073 16.8699 154.597 17.627 154.902 18.5734H153.768C153.507 17.9582 153.158 17.4377 152.634 17.1065C152.111 16.728 151.544 16.5387 150.89 16.5387C150.236 16.5387 149.669 16.6333 149.233 16.8699C148.797 17.0592 148.404 17.3904 148.099 17.7216C147.488 18.4787 147.183 19.4251 147.183 20.608C147.183 21.791 147.488 22.7847 148.099 23.4944C148.753 24.2988 149.712 24.6774 150.89 24.6774Z" fill="white"/>
<path d="M159.263 24.7621C160.048 24.7621 160.615 24.4782 161.094 23.9104C161.53 23.3899 161.748 22.6801 161.748 21.8284C161.748 20.9766 161.53 20.3142 161.094 19.7464C160.658 19.1786 160.048 18.8946 159.263 18.8946C158.521 18.8946 157.911 19.1786 157.431 19.7464C156.995 20.2669 156.777 20.9766 156.777 21.8284C156.777 22.6801 156.995 23.3425 157.431 23.9104C157.911 24.4782 158.521 24.7621 159.263 24.7621ZM161.661 24.4782C161.094 25.3772 160.266 25.8504 159.132 25.8504C158.129 25.8504 157.3 25.4719 156.646 24.7148C156.035 23.9577 155.73 23.0113 155.73 21.923C155.73 20.7874 156.035 19.8883 156.646 19.1312C157.3 18.3742 158.129 17.9956 159.219 17.9956C160.266 17.9956 161.094 18.4688 161.661 19.3678V18.1376H162.708V25.8031H161.661V24.4782Z" fill="white"/>
<path d="M168.159 17.9009V19.0366H168.028C167.243 19.0366 166.633 19.3678 166.153 20.0303C165.717 20.6454 165.455 21.4025 165.455 22.3016V25.6613H164.408V18.0428H165.455V19.9356C165.673 19.1312 166.153 18.5634 166.938 18.1848C167.243 18.0428 167.636 17.9482 168.072 17.9482H168.159V17.9009Z" fill="white"/>
<path d="M172.04 18.942C171.386 18.942 170.819 19.1786 170.383 19.6044C169.947 20.0303 169.729 20.5508 169.598 21.2606H174.395C174.308 20.5981 174.046 20.0303 173.61 19.6044C173.261 19.1786 172.694 18.942 172.04 18.942ZM172.128 24.7621C173.087 24.7621 173.785 24.3362 174.177 23.4845H175.355C175.093 24.1943 174.7 24.7621 174.177 25.188C173.654 25.6138 172.956 25.8504 172.128 25.8504C171.081 25.8504 170.209 25.4719 169.511 24.7148C168.857 23.9577 168.552 23.0113 168.552 21.923C168.552 20.7874 168.857 19.841 169.467 19.1312C170.121 18.3742 170.994 17.9956 172.04 17.9956C173.087 17.9956 173.959 18.3742 174.613 19.1312C175.224 19.8883 175.529 20.7874 175.529 21.923V22.3962H169.598C169.685 23.106 169.947 23.6738 170.383 24.147C170.863 24.5728 171.43 24.7621 172.128 24.7621Z" fill="white"/>
<path d="M179.846 15.5349V25.7084H186.737V24.6201H180.893V21.1658H186.083V20.0302H180.893V16.6232H186.737V15.5349H179.846Z" fill="white"/>
<path d="M192.363 18.0427L190.575 20.9292L188.743 18.0427H187.391L189.92 21.7336L187.217 25.7084H188.568L190.575 22.5853L192.581 25.7084H193.932L191.185 21.7336L193.714 18.0427H192.363Z" fill="white"/>
<path d="M197.726 24.7622C198.163 24.7622 198.599 24.6202 198.948 24.3363C199.296 24.0524 199.558 23.7212 199.733 23.248H200.866C200.648 24.0051 200.256 24.6202 199.689 25.0934C199.078 25.5666 198.381 25.8032 197.552 25.8032C196.505 25.8032 195.677 25.4247 195.023 24.6676C194.368 23.9105 194.063 22.9641 194.063 21.8757C194.063 20.7401 194.368 19.7937 195.023 19.0839C195.677 18.3268 196.505 17.9482 197.552 17.9482C198.381 17.9482 199.078 18.1848 199.689 18.658C200.256 19.1312 200.648 19.7464 200.866 20.5035H199.689C199.514 20.0776 199.253 19.6991 198.904 19.4151C198.555 19.1312 198.163 18.9893 197.683 18.9893C197.247 18.9893 196.854 19.0839 196.549 19.2259C196.244 19.3678 195.982 19.6044 195.764 19.841C195.284 20.4088 195.066 21.0713 195.066 21.9231C195.066 22.7275 195.284 23.4373 195.764 24.0051C196.244 24.4783 196.898 24.7622 197.726 24.7622Z" fill="white"/>
<path d="M205.096 18.9381C204.442 18.9381 203.875 19.1747 203.439 19.6005C203.003 20.0264 202.785 20.5469 202.654 21.2567H207.451C207.364 20.5942 207.102 20.0264 206.666 19.6005C206.274 19.1747 205.75 18.9381 205.096 18.9381ZM205.183 24.7583C206.143 24.7583 206.841 24.3324 207.233 23.4807H208.411C208.149 24.1905 207.756 24.7583 207.233 25.1842C206.71 25.61 206.012 25.8466 205.183 25.8466C204.137 25.8466 203.265 25.4681 202.567 24.711C201.913 23.9539 201.607 23.0075 201.607 21.9192C201.607 20.7835 201.913 19.8371 202.523 19.1274C203.177 18.3703 204.05 17.9917 205.096 17.9917C206.143 17.9917 207.015 18.3703 207.669 19.1274C208.28 19.8845 208.585 20.7835 208.585 21.9192V22.3923H202.654C202.741 23.1021 203.003 23.67 203.439 24.1431C203.875 24.569 204.486 24.7583 205.183 24.7583Z" fill="white"/>
<path d="M210.809 14.967H209.763V25.7085H210.809V14.967Z" fill="white"/>
<path d="M213.557 14.967H212.51V25.7085H213.557V14.967Z" fill="white"/>
<path d="M218.354 18.9346C217.7 18.9346 217.133 19.1712 216.697 19.5971C216.261 20.023 216.043 20.5435 215.912 21.2533H220.709C220.622 20.5908 220.36 20.023 219.924 19.5971C219.531 19.1712 219.008 18.9346 218.354 18.9346ZM218.441 24.7548C219.401 24.7548 220.098 24.3289 220.491 23.4772H221.668C221.407 24.187 221.014 24.7548 220.491 25.1807C219.968 25.6066 219.27 25.8431 218.441 25.8431C217.395 25.8431 216.522 25.4646 215.825 24.7075C215.171 23.9504 214.865 23.004 214.865 21.9157C214.865 20.7801 215.171 19.8337 215.781 19.1239C216.435 18.3668 217.307 17.9883 218.354 17.9883C219.401 17.9883 220.273 18.3668 220.927 19.1239C221.538 19.881 221.843 20.7801 221.843 21.9157V22.3889H215.912C215.999 23.0987 216.261 23.6665 216.697 24.1397C217.177 24.5655 217.743 24.7548 218.441 24.7548Z" fill="white"/>
<path d="M224.067 18.0428V19.2258C224.328 18.8473 224.634 18.5634 224.983 18.2794C225.331 18.0428 225.768 17.9009 226.247 17.9009C226.727 17.9009 227.119 17.9955 227.468 18.1375C227.817 18.2794 228.123 18.516 228.341 18.8C228.907 19.4151 229.213 20.2669 229.213 21.2606V25.756H228.166V21.3079C228.166 20.5981 227.992 20.0303 227.599 19.6044C227.25 19.1785 226.771 18.9892 226.16 18.9892C225.55 18.9892 225.07 19.2258 224.634 19.6517C224.198 20.0776 224.023 20.6454 224.023 21.3552V25.8033H222.977V18.0428H224.067Z" fill="white"/>
<path d="M234.184 24.7584C234.62 24.7584 235.056 24.6165 235.405 24.3325C235.754 24.0486 236.016 23.7174 236.19 23.2442H237.324C237.106 24.0013 236.714 24.6165 236.147 25.0896C235.536 25.5628 234.838 25.7994 234.01 25.7994C232.963 25.7994 232.135 25.4209 231.48 24.6638C230.826 23.9067 230.521 22.9603 230.521 21.872C230.521 20.7364 230.826 19.79 231.48 19.0802C232.135 18.3231 232.963 17.9446 234.01 17.9446C234.838 17.9446 235.58 18.1812 236.147 18.6544C236.714 19.1275 237.106 19.7427 237.324 20.4998H236.19C236.016 20.0739 235.754 19.6954 235.405 19.4114C235.056 19.1275 234.664 18.9856 234.184 18.9856C233.748 18.9856 233.356 19.0802 233.05 19.2222C232.745 19.3641 232.483 19.6007 232.265 19.8373C231.786 20.4051 231.568 21.0676 231.568 21.9193C231.568 22.7237 231.786 23.4335 232.265 24.0013C232.701 24.4745 233.356 24.7584 234.184 24.7584Z" fill="white"/>
<path d="M241.511 18.9346C240.857 18.9346 240.29 19.1712 239.854 19.5971C239.418 20.023 239.2 20.5435 239.069 21.2533H243.866C243.779 20.5908 243.517 20.023 243.081 19.5971C242.732 19.1712 242.165 18.9346 241.511 18.9346ZM241.598 24.7548C242.558 24.7548 243.255 24.3289 243.648 23.4772H244.825C244.564 24.187 244.171 24.7548 243.648 25.1807C243.125 25.6066 242.427 25.8431 241.598 25.8431C240.552 25.8431 239.679 25.4646 238.982 24.7075C238.327 23.9504 238.022 23.004 238.022 21.9157C238.022 20.7801 238.327 19.8337 238.938 19.1239C239.592 18.3668 240.464 17.9883 241.511 17.9883C242.558 17.9883 243.43 18.3668 244.084 19.1239C244.695 19.881 245 20.7801 245 21.9157V22.3889H239.069C239.156 23.0987 239.418 23.6665 239.854 24.1397C240.334 24.5655 240.9 24.7548 241.598 24.7548Z" fill="white"/>
<path d="M19.8861 24.5534C19.8861 25.4525 19.5372 25.6418 18.9266 25.6418H16.1792C15.6123 25.6418 15.089 25.4052 14.7401 24.8847L5.10234 10.8783H5.05873V24.6008C5.05873 25.3579 4.75347 25.6418 4.09932 25.6418H1.09024C0.348878 25.6418 0 25.4525 0 24.6008V2.31363C0 1.41457 0.392488 1.2253 1.09024 1.2253H3.83766C4.49181 1.2253 4.79708 1.41457 5.18956 1.9824L14.8709 16.0834H14.9145V2.21899C14.9145 1.46189 15.2634 1.17798 15.9176 1.17798H19.0575C19.8861 1.17798 19.9733 1.65117 19.9733 2.26631V24.5534H19.8861Z" fill="white"/>
<path d="M30.2219 24.7461C30.2219 25.1719 29.9602 25.5505 29.5241 25.5505H25.7737C25.294 25.5505 25.0759 25.1719 25.0759 24.7934V1.93869C25.0759 1.51282 25.3376 1.13428 25.7737 1.13428H29.5241C30.0038 1.13428 30.2219 1.51282 30.2219 1.89137V24.7461Z" fill="white"/>
<path d="M52.0698 3.26044L51.1104 6.24152C50.9796 6.57275 50.8487 6.76203 50.6307 6.76203C50.4998 6.76203 50.369 6.71471 50.1946 6.62007C48.4938 5.72101 47.1419 5.4371 45.6155 5.4371C42.2576 5.38978 40.0771 8.22891 40.0771 13.3393C40.0771 18.9229 42.5629 21.2889 45.7464 21.2889C47.2727 21.2889 48.6246 20.9576 50.1074 20.2952C50.2818 20.2005 50.4562 20.1532 50.5871 20.1532C50.8923 20.1532 51.0232 20.2952 51.154 20.721L51.9826 23.3236C52.0262 23.5128 52.0698 23.7021 52.0698 23.8914C52.0698 24.2226 51.939 24.5065 51.5029 24.6485C49.2788 25.5475 47.4036 26.0207 44.9178 26.0207C38.0274 26.0207 34.5823 21.0523 34.5823 13.4813C34.5823 5.86297 38.856 0.610596 45.3539 0.610596C47.7088 0.610596 49.6713 1.08378 51.5465 2.03016C51.9826 2.21943 52.157 2.50334 52.157 2.73994C52.157 2.88189 52.1134 3.07117 52.0698 3.26044Z" fill="white"/>
<path d="M69.7323 1.13428C70.3864 1.13428 70.5608 1.46551 70.5608 1.93869L70.2556 4.77781C70.212 5.5349 69.7759 5.67686 68.9909 5.67686H61.1411V10.9292H68.5112C69.2089 10.9292 69.4706 11.3078 69.4706 11.8756V14.4308C69.4706 15.1406 69.1653 15.4718 68.5112 15.4718H61.0975V21.0554H69.5578C70.1247 21.0554 70.5172 21.3393 70.5172 22.0018V24.6043C70.5172 25.2667 70.212 25.598 69.6014 25.598H56.9982C56.2568 25.598 55.908 25.4087 55.908 24.5096V2.12797C55.908 1.51283 56.2132 1.13428 56.7365 1.13428H69.7323Z" fill="white"/>
</svg>
