<svg width="80" height="29" viewBox="0 0 80 29" fill="none" xmlns="http://www.w3.org/2000/svg">
<path fill-rule="evenodd" clip-rule="evenodd" d="M35.3122 6.06307C35.3469 6.55536 35.4927 6.91344 35.7507 7.13729C36.0086 7.36115 36.3886 7.47284 36.8898 7.47284C37.1304 7.47284 37.3333 7.4448 37.4985 7.38918C37.6638 7.33311 37.7985 7.25864 37.901 7.16533C38.0044 7.07202 38.0781 6.96216 38.1225 6.8353C38.167 6.70889 38.1895 6.57099 38.1895 6.4216C38.1895 6.21292 38.1175 6.01711 37.9726 5.83416C37.8285 5.65122 37.5638 5.51884 37.1791 5.43656L36.22 5.2458C35.8417 5.17133 35.5083 5.07435 35.2199 4.95484C34.9309 4.83578 34.6886 4.68042 34.4925 4.49058C34.2963 4.30028 34.1476 4.06724 34.0439 3.79098C33.9405 3.51473 33.8892 3.18653 33.8892 2.80593C33.8892 2.42534 33.9596 2.08979 34.1011 1.79882C34.2417 1.50786 34.437 1.26562 34.6886 1.07164C34.9394 0.877668 35.2406 0.730118 35.5914 0.629453C35.9421 0.528788 36.3268 0.478685 36.7466 0.478685C37.2829 0.478685 37.7294 0.545795 38.087 0.680015C38.4445 0.814236 38.733 0.991664 38.9541 1.21138C39.1744 1.43156 39.3371 1.68713 39.4438 1.97809C39.5497 2.26905 39.6201 2.57105 39.6548 2.88454L38.2009 3.08587C38.1247 2.64551 37.9785 2.32881 37.7625 2.13437C37.5456 1.94086 37.2168 1.84341 36.7771 1.84341C36.5157 1.84341 36.3014 1.86777 36.1328 1.9165C35.9637 1.96476 35.829 2.02865 35.7257 2.10679C35.6223 2.18494 35.5503 2.27687 35.5088 2.38121C35.4672 2.48601 35.4469 2.59403 35.4469 2.70573C35.4469 3.00405 35.5249 3.2279 35.6795 3.37729C35.8341 3.52622 36.0972 3.64205 36.4679 3.72387L37.4791 3.93669C38.2763 4.10861 38.8618 4.38624 39.2325 4.77005C39.604 5.15433 39.7891 5.70867 39.7891 6.43218C39.7891 6.7829 39.7294 7.10512 39.6086 7.40022C39.4879 7.69486 39.3091 7.95227 39.0723 8.17244C38.8347 8.39262 38.5377 8.56407 38.1797 8.68726C37.823 8.81045 37.4037 8.87158 36.922 8.87158C35.9176 8.87158 35.1495 8.63854 34.617 8.17244C34.0841 7.70635 33.7969 7.00307 33.7558 6.06307H35.3122ZM49.9313 5.10064C49.9313 4.69752 49.8398 4.38403 49.6576 4.16064C49.4755 3.93678 49.1916 3.82463 48.807 3.82463C48.6142 3.82463 48.4448 3.85818 48.3016 3.92529C48.1567 3.9924 48.0351 4.08388 47.936 4.19971C47.836 4.31508 47.7589 4.44976 47.7034 4.60283C47.6488 4.7559 47.6174 4.92137 47.6107 5.10064H49.9313ZM51.2615 6.84596C51.1645 7.50281 50.9222 8.00062 50.5341 8.34031C50.1452 8.67954 49.5801 8.84915 48.8371 8.84915C47.9436 8.84915 47.2718 8.58071 46.8206 8.04383C46.3707 7.50695 46.1453 6.74576 46.1453 5.76071C46.1453 5.26841 46.2106 4.83036 46.3415 4.44609C46.4715 4.06181 46.6558 3.73545 46.8935 3.46701C47.1303 3.19857 47.4141 2.9954 47.7441 2.85705C48.0741 2.71915 48.4384 2.6502 48.8371 2.6502C49.6627 2.6502 50.2833 2.90761 50.6993 3.42243C51.1145 3.9377 51.3233 4.63133 51.3233 5.50422V6.13073H47.5895C47.6026 6.6005 47.7136 6.96823 47.9195 7.23299C48.1245 7.49776 48.435 7.63014 48.8477 7.63014C49.4179 7.63014 49.7555 7.36905 49.858 6.84642H51.2615V6.84596ZM56.8091 6.5555C56.7553 7.25694 56.5341 7.81451 56.1452 8.22912C55.7572 8.64281 55.1747 8.84966 54.3978 8.84966C53.9432 8.84966 53.5514 8.77519 53.2218 8.62626C52.8913 8.47687 52.6211 8.26819 52.4122 7.99975C52.2021 7.73131 52.0458 7.40633 51.9433 7.02573C51.8399 6.64514 51.7882 6.22409 51.7882 5.76121C51.7882 5.2988 51.8479 4.87545 51.9687 4.49118C52.0886 4.1069 52.2627 3.77825 52.4893 3.50613C52.7168 3.23355 52.9947 3.02303 53.3251 2.87364C53.6556 2.72425 54.0334 2.64979 54.46 2.64979C54.8235 2.64979 55.1421 2.69989 55.4149 2.80102C55.6856 2.90168 55.9148 3.04188 56.0995 3.22068C56.2859 3.39995 56.4295 3.61461 56.5324 3.86466C56.6354 4.11426 56.704 4.38867 56.7387 4.68699L55.2831 4.89935C55.2493 4.60104 55.17 4.36064 55.0468 4.17769C54.9226 3.99475 54.7083 3.90328 54.4071 3.90328C54.1868 3.90328 54.0051 3.95384 53.861 4.0545C53.7157 4.15517 53.6013 4.29123 53.5153 4.46314C53.4289 4.63505 53.3688 4.83087 53.334 5.05058C53.3001 5.27076 53.2836 5.50013 53.2836 5.73869C53.2836 5.98507 53.3001 6.21995 53.334 6.44381C53.3688 6.66766 53.4277 6.86531 53.5094 7.03722C53.5916 7.20868 53.7056 7.34474 53.8504 7.4454C53.994 7.54607 54.177 7.59663 54.3973 7.59663C54.6858 7.59663 54.9087 7.50745 55.0675 7.32819C55.2255 7.14892 55.3179 6.89197 55.3463 6.55596H56.8091V6.5555ZM57.3673 8.67053V2.82873H58.8111V8.67053H57.3673ZM62.8681 6.06307L62.2275 6.09663C61.9255 6.11179 61.6823 6.14535 61.4964 6.19729C61.31 6.24969 61.1676 6.31496 61.0685 6.39357C60.9685 6.47171 60.9012 6.56318 60.8664 6.66798C60.8325 6.77278 60.8152 6.8877 60.8152 7.01456C60.8152 7.20854 60.8779 7.36161 61.0011 7.4733C61.1244 7.58546 61.296 7.64154 61.5167 7.64154C61.8882 7.64154 62.1903 7.54777 62.4245 7.36161C62.5554 7.25726 62.6622 7.12488 62.7448 6.96446C62.8265 6.80404 62.8681 6.60455 62.8681 6.36553V6.06307ZM62.8986 7.93158C62.6859 8.19267 62.4474 8.40549 62.1826 8.56959C61.9179 8.73369 61.5747 8.81596 61.1566 8.81596C60.916 8.81596 60.6877 8.78241 60.4708 8.7153C60.2534 8.64773 60.0645 8.54339 59.9027 8.40181C59.7413 8.26024 59.6121 8.07913 59.5167 7.85896C59.4193 7.63878 59.3714 7.37585 59.3714 7.07018C59.3714 6.66752 59.4541 6.33887 59.6188 6.08513C59.7849 5.83186 60.0001 5.63421 60.2683 5.49218C60.5373 5.35014 60.8376 5.24948 61.1719 5.18972C61.5044 5.13042 61.8437 5.09273 62.1873 5.07802L62.8778 5.04447V4.75351C62.8778 4.39497 62.788 4.14906 62.605 4.01483C62.422 3.88061 62.2076 3.8135 61.9602 3.8135C61.3896 3.8135 61.0626 4.04839 60.9812 4.51862L59.6608 4.3844C59.7569 3.77305 60.0043 3.33086 60.4038 3.05829C60.802 2.78571 61.3388 2.64965 62.0119 2.64965C62.4254 2.64965 62.7761 2.70389 63.0646 2.81191C63.3531 2.91993 63.5853 3.07483 63.7606 3.27616C63.936 3.47749 64.0635 3.72203 64.1428 4.00932C64.2216 4.29661 64.2605 4.61929 64.2605 4.97736V8.67025H62.8986V7.93158ZM64.9172 8.67007V0.679372H66.3605V8.67007H64.9172ZM67.018 8.67053V2.82873H68.4613V8.67053H67.018ZM70.4069 6.81291C70.4543 7.15628 70.5823 7.37967 70.7877 7.48401C70.994 7.58835 71.2414 7.64122 71.5299 7.64122C71.8743 7.64122 72.1205 7.59433 72.2683 7.50102C72.4153 7.40817 72.4899 7.25694 72.4899 7.0478C72.4899 6.89887 72.4437 6.76832 72.3509 6.65617C72.2573 6.54447 72.0802 6.46587 71.8188 6.42128L71.0767 6.28706C70.423 6.17537 69.9367 5.98323 69.6173 5.71065C69.2978 5.43853 69.1381 5.02622 69.1381 4.47417C69.1381 4.19056 69.1945 3.93729 69.3076 3.71298C69.4211 3.48912 69.5812 3.29883 69.7876 3.14208C69.9934 2.98534 70.2391 2.86445 70.5238 2.77849C70.8093 2.69254 71.1237 2.64979 71.4685 2.64979C71.8947 2.64979 72.2522 2.69667 72.5403 2.78952C72.8296 2.88329 73.0647 3.00786 73.2469 3.16461C73.4295 3.32089 73.5676 3.50797 73.6604 3.72401C73.7531 3.94005 73.8201 4.17172 73.8616 4.41809L72.5716 4.5969C72.5102 4.32846 72.4022 4.13081 72.2471 4.00394C72.0921 3.87708 71.8434 3.81364 71.4986 3.81364C71.3071 3.81364 71.1461 3.83065 71.0195 3.8642C70.8915 3.89776 70.792 3.94051 70.72 3.99291C70.6479 4.04531 70.5958 4.10461 70.5658 4.17172C70.5353 4.23883 70.5196 4.30226 70.5196 4.36201C70.5196 4.54864 70.5725 4.68515 70.6793 4.77065C70.786 4.85661 70.9936 4.92969 71.3033 4.98945L71.9841 5.11218C72.3624 5.17929 72.675 5.26524 72.9224 5.36959C73.1698 5.47439 73.3685 5.60263 73.5155 5.7557C73.6637 5.90876 73.7671 6.08987 73.8243 6.29855C73.884 6.5077 73.9128 6.74994 73.9128 7.02619C73.9128 7.57824 73.7201 8.02043 73.3354 8.35231C72.9499 8.68418 72.356 8.85012 71.5507 8.85012C71.2279 8.85012 70.9203 8.8184 70.628 8.75543C70.3361 8.69153 70.0735 8.58168 69.8435 8.42493C69.6134 8.26819 69.4249 8.05996 69.2767 7.79842C69.128 7.53733 69.0437 7.20914 69.0229 6.81337H70.4069V6.81291ZM74.9365 4.04848H74.0909V2.82855H74.9365V1.27307H76.3802V2.82855H77.6181V4.04848H76.3802V6.74576C76.3802 7.05189 76.4391 7.25873 76.5564 7.36721C76.6734 7.47523 76.8237 7.52947 77.0093 7.52947C77.1059 7.52947 77.2046 7.52396 77.3037 7.51247C77.4033 7.50143 77.5016 7.48075 77.5977 7.45087L77.804 8.60369C77.6041 8.6708 77.4096 8.71723 77.2207 8.74343C77.0318 8.76917 76.8517 8.7825 76.6793 8.7825C76.0883 8.7825 75.6503 8.62943 75.3644 8.3233C75.0788 8.01763 74.9356 7.50281 74.9356 6.77931V4.04848H74.9365ZM36.9217 14.0211C37.1899 14.0211 37.4114 13.9922 37.5868 13.932C37.7622 13.8727 37.9012 13.7899 38.0045 13.6856C38.1079 13.5812 38.1782 13.4525 38.2155 13.2999C38.2536 13.1469 38.2727 12.9809 38.2727 12.8017C38.2727 12.615 38.2519 12.4509 38.2108 12.3089C38.1693 12.1673 38.0973 12.0478 37.9939 11.9508C37.8914 11.8538 37.7516 11.7794 37.5762 11.727C37.4017 11.675 37.1797 11.6488 36.9111 11.6488H35.4085V14.0216H36.9217V14.0211ZM33.8919 10.2722H36.9319C37.4962 10.2722 37.9622 10.3416 38.329 10.4795C38.6976 10.6174 38.9899 10.7998 39.2064 11.0278C39.4233 11.2554 39.5736 11.5201 39.6596 11.8221C39.7456 12.1246 39.7888 12.4399 39.7888 12.7681C39.7888 13.1193 39.7456 13.4548 39.6596 13.7752C39.5736 14.0961 39.4228 14.3778 39.2064 14.6201C38.9895 14.8632 38.701 15.0554 38.34 15.1965C37.9783 15.339 37.5233 15.4093 36.973 15.4093H35.4085V18.2633H33.8919V10.2722ZM49.2839 15.6553L48.6442 15.6889C48.3421 15.704 48.0981 15.7376 47.913 15.79C47.7266 15.8415 47.5843 15.9077 47.4839 15.9858C47.3852 16.0644 47.3161 16.1554 47.2822 16.2607C47.2479 16.365 47.2305 16.4809 47.2305 16.6073C47.2305 16.8012 47.2932 16.9543 47.4165 17.066C47.5406 17.1782 47.7118 17.2342 47.9321 17.2342C48.3036 17.2342 48.6065 17.1405 48.8399 16.9543C48.9712 16.85 49.078 16.718 49.1602 16.5572C49.2428 16.3963 49.2834 16.1972 49.2834 15.9582V15.6553H49.2839ZM49.3156 17.5247C49.1021 17.7854 48.8636 17.9982 48.5997 18.1627C48.3349 18.3268 47.9918 18.4082 47.5724 18.4082C47.3314 18.4082 47.1039 18.3756 46.887 18.308C46.6697 18.2404 46.4816 18.1361 46.3189 17.9945C46.1575 17.8525 46.0279 17.6723 45.9325 17.4512C45.8355 17.2315 45.7885 16.9681 45.7885 16.662C45.7885 16.2598 45.8698 15.9316 46.0359 15.6774C46.2011 15.4236 46.4167 15.2255 46.6853 15.084C46.9535 14.9419 47.2538 14.8413 47.5881 14.7824C47.9215 14.7222 48.26 14.6854 48.6039 14.6698L49.2944 14.6358V14.3457C49.2944 13.9877 49.2038 13.7418 49.0212 13.6071C48.8391 13.4729 48.6247 13.4057 48.3769 13.4057C47.8062 13.4057 47.4801 13.6411 47.3974 14.1109L46.0778 13.9766C46.174 13.3648 46.4214 12.9231 46.8192 12.6505C47.2187 12.3784 47.755 12.2419 48.429 12.2419C48.8416 12.2419 49.1924 12.2961 49.4808 12.4041C49.7693 12.5122 50.0019 12.6671 50.1764 12.8689C50.3518 13.0702 50.4806 13.3147 50.559 13.6016C50.6378 13.8893 50.6772 14.2115 50.6772 14.5696V18.2629H49.3161V17.5247H49.3156ZM51.3325 12.4211H52.736V13.2379C52.9143 12.9322 53.1304 12.7028 53.3845 12.5498C53.64 12.3972 53.9069 12.3204 54.189 12.3204C54.3271 12.3204 54.4411 12.3259 54.5304 12.3369C54.6198 12.348 54.6986 12.3613 54.7668 12.376L54.5923 13.7973C54.4262 13.7527 54.2242 13.7302 53.9835 13.7302C53.8255 13.7302 53.6739 13.7504 53.5298 13.7918C53.3845 13.8327 53.2545 13.909 53.138 14.0207C53.0139 14.1402 52.9224 14.2749 52.8639 14.4233C52.8063 14.5732 52.7762 14.7267 52.7762 14.8825V18.2629H51.3325V12.4211ZM55.2411 12.4211H56.6442V13.2048C56.8437 12.8761 57.0771 12.6339 57.3465 12.4771C57.6139 12.3204 57.896 12.2423 58.1921 12.2423C58.5835 12.2423 58.903 12.3282 59.1508 12.4997C59.3982 12.6711 59.574 12.9212 59.6765 13.2494C59.9247 12.8918 60.1861 12.6339 60.4611 12.4771C60.736 12.3204 61.0385 12.2423 61.3689 12.2423C61.9255 12.2423 62.3437 12.4082 62.6224 12.7401C62.8995 13.0724 63.0393 13.6116 63.0393 14.3571V18.2633H61.5955V14.5704C61.5955 14.3613 61.579 14.1917 61.5443 14.0607C61.5104 13.9301 61.4634 13.8276 61.4053 13.7532C61.3464 13.6782 61.2753 13.6263 61.1935 13.5964C61.1105 13.567 61.0253 13.5514 60.9359 13.5514C60.7915 13.5514 60.6589 13.5776 60.539 13.63C60.4183 13.6824 60.2997 13.772 60.1832 13.8984C60.0861 14.0032 60.0095 14.1223 59.9506 14.2565C59.8917 14.3912 59.8629 14.5327 59.8629 14.6821V18.2633H58.4192V14.5704C58.4192 14.3613 58.4018 14.1917 58.3679 14.0607C58.3332 13.9301 58.2866 13.8276 58.2281 13.7532C58.1692 13.6782 58.0998 13.6263 58.0171 13.5964C57.9341 13.567 57.8481 13.5514 57.7587 13.5514C57.6143 13.5514 57.4817 13.5776 57.3618 13.63C57.2411 13.6824 57.1224 13.772 57.006 13.8984C56.9094 14.0032 56.8323 14.1282 56.7742 14.273C56.7149 14.4187 56.6857 14.5773 56.6857 14.7488V18.2633H55.242V12.4211H55.2411ZM67.0952 15.6553L66.4556 15.6889C66.1535 15.704 65.9095 15.7376 65.7227 15.79C65.538 15.8415 65.3961 15.9077 65.2957 15.9858C65.1965 16.0644 65.1292 16.1554 65.0944 16.2607C65.0597 16.365 65.0432 16.4809 65.0432 16.6073C65.0432 16.8012 65.1055 16.9543 65.2287 17.066C65.352 17.1782 65.524 17.2342 65.7443 17.2342C66.1154 17.2342 66.4187 17.1405 66.6521 16.9543C66.7826 16.85 66.8902 16.718 66.9724 16.5572C67.055 16.3963 67.0957 16.1972 67.0957 15.9582V15.6553H67.0952ZM67.127 17.5247C66.9135 17.7854 66.675 17.9982 66.4102 18.1627C66.1455 18.3268 65.8032 18.4082 65.3838 18.4082C65.1436 18.4082 64.9152 18.3756 64.6983 18.308C64.481 18.2404 64.2929 18.1361 64.1303 17.9945C63.9689 17.8525 63.8397 17.6723 63.7443 17.4512C63.6469 17.2315 63.599 16.9681 63.599 16.662C63.599 16.2598 63.6816 15.9316 63.8473 15.6774C64.0116 15.4236 64.2285 15.2255 64.4967 15.084C64.7649 14.9419 65.0652 14.8413 65.3995 14.7824C65.732 14.7222 66.0713 14.6854 66.4153 14.6698L67.1054 14.6358V14.3457C67.1054 13.9877 67.0143 13.7418 66.8322 13.6071C66.65 13.4729 66.4348 13.4057 66.1878 13.4057C65.6168 13.4057 65.291 13.6411 65.2088 14.1109L63.8892 13.9766C63.985 13.3648 64.2324 12.9231 64.6314 12.6505C65.0296 12.3784 65.5664 12.2419 66.2404 12.2419C66.6525 12.2419 67.0033 12.2961 67.2922 12.4041C67.5807 12.5122 67.8129 12.6671 67.9878 12.8689C68.164 13.0702 68.2907 13.3147 68.3703 13.6016C68.4487 13.8893 68.4881 14.2115 68.4881 14.5696V18.2629H67.127V17.5247ZM74.071 16.1477C74.0155 16.8487 73.7952 17.4062 73.4059 17.8213C73.017 18.2359 72.4345 18.4423 71.6576 18.4423C71.2035 18.4423 70.8125 18.3678 70.482 18.2189C70.1525 18.07 69.8813 17.8608 69.6721 17.5924C69.4632 17.324 69.3061 16.999 69.2035 16.6188C69.1002 16.2373 69.0489 15.8172 69.0489 15.3534C69.0489 14.8914 69.1091 14.4681 69.229 14.0838C69.3493 13.7 69.5238 13.3709 69.7504 13.0988C69.9771 12.8267 70.2546 12.6157 70.5858 12.4668C70.9154 12.3174 71.2933 12.2429 71.7203 12.2429C72.0846 12.2429 72.4023 12.2935 72.6743 12.3937C72.9459 12.4948 73.1742 12.6345 73.3602 12.8138C73.5457 12.9931 73.6906 13.2073 73.7931 13.4569C73.8965 13.7069 73.9651 13.9813 73.9999 14.2796L72.5447 14.4925C72.5099 14.1941 72.4303 13.9533 72.307 13.7708C72.1829 13.5879 71.9702 13.4964 71.6674 13.4964C71.4475 13.4964 71.2653 13.5465 71.1205 13.6472C70.9764 13.7478 70.8616 13.8843 70.7756 14.0562C70.69 14.2277 70.629 14.4235 70.5943 14.6437C70.5604 14.8639 70.543 15.0928 70.543 15.3323C70.543 15.5782 70.5604 15.8131 70.5943 16.0369C70.629 16.2608 70.6884 16.4589 70.7705 16.6303C70.8523 16.8018 70.9667 16.9378 71.1107 17.0385C71.2556 17.1396 71.4373 17.1897 71.6576 17.1897C71.9465 17.1897 72.1698 17.1001 72.3278 16.9213C72.4858 16.742 72.5794 16.4851 72.6065 16.1486H74.071V16.1477ZM74.5935 19.0915C74.7935 19.1517 74.9955 19.1807 75.2023 19.1807C75.395 19.1807 75.5492 19.131 75.6661 19.0299C75.7839 18.9292 75.883 18.7523 75.9657 18.499L76.1304 18.0062L73.8924 12.4214H75.5636L76.8214 16.2609L77.9969 12.4214H79.5758L77.3996 18.4314C77.2755 18.7674 77.1582 19.0602 77.0489 19.3107C76.9387 19.5603 76.8129 19.7686 76.6723 19.9363C76.5308 20.1041 76.363 20.2291 76.1669 20.311C75.9707 20.3932 75.7284 20.4346 75.4395 20.4346C75.2607 20.4346 75.0837 20.4222 74.9083 20.3951C74.7329 20.3689 74.5495 20.3234 74.3563 20.2549L74.5935 19.0915ZM35.313 25.2488C35.3469 25.7402 35.4935 26.0997 35.7507 26.3226C36.0086 26.5455 36.3886 26.6577 36.8906 26.6577C37.1304 26.6577 37.3342 26.6301 37.4985 26.5745C37.6638 26.5179 37.7985 26.4435 37.901 26.3502C38.0044 26.2573 38.0781 26.147 38.1225 26.0206C38.167 25.8928 38.1895 25.7558 38.1895 25.6055C38.1895 25.3973 38.1175 25.2015 37.9726 25.019C37.8285 24.8365 37.5638 24.7032 37.1791 24.6223L36.22 24.4306C35.8417 24.3562 35.5083 24.2592 35.2199 24.1397C34.9314 24.0202 34.6886 23.8657 34.4925 23.6754C34.2963 23.4856 34.1476 23.2516 34.0439 22.9772C33.9405 22.6996 33.8892 22.3718 33.8892 21.9917C33.8892 21.6111 33.9596 21.2746 34.1011 20.9846C34.2417 20.6932 34.4378 20.4509 34.6886 20.2579C34.9394 20.063 35.2406 19.9154 35.5914 19.8148C35.9421 19.7141 36.3268 19.6644 36.7466 19.6644C37.2829 19.6644 37.7294 19.7306 38.0878 19.8653C38.4445 20 38.733 20.177 38.9541 20.3967C39.1744 20.6169 39.3371 20.8724 39.4438 21.1634C39.5506 21.4544 39.6209 21.7568 39.6548 22.0703L38.2009 22.2712C38.1247 21.8313 37.9794 21.5146 37.7625 21.3197C37.5456 21.1266 37.2168 21.0296 36.7771 21.0296C36.5166 21.0296 36.3014 21.0535 36.1328 21.1018C35.965 21.1501 35.829 21.2135 35.7257 21.2921C35.6223 21.3707 35.5503 21.4622 35.5088 21.5665C35.4672 21.6713 35.4473 21.7784 35.4473 21.8915C35.4473 22.1893 35.5244 22.4137 35.6791 22.5621C35.8337 22.712 36.0968 22.8269 36.4683 22.9096L37.4786 23.1225C38.2759 23.2939 38.8614 23.5725 39.232 23.9563C39.6035 24.3405 39.7887 24.8944 39.7887 25.6179C39.7887 25.9682 39.7289 26.2918 39.6091 26.5851C39.4875 26.8811 39.3096 27.1371 39.0719 27.3577C38.8351 27.5779 38.5373 27.7494 38.1802 27.873C37.8226 27.9967 37.4032 28.0573 36.9216 28.0573C35.918 28.0573 35.1491 27.8243 34.6166 27.3577C34.0837 26.8912 33.7965 26.1888 33.7554 25.2488H35.313ZM44.0386 24.2851C44.0386 23.8829 43.9475 23.5694 43.7649 23.346C43.5823 23.1226 43.2994 23.0105 42.9147 23.0105C42.722 23.0105 42.5529 23.0436 42.4089 23.1107C42.2644 23.1783 42.1412 23.2697 42.0425 23.3856C41.9433 23.5014 41.8654 23.6352 41.8107 23.7887C41.7552 23.9413 41.7247 24.1072 41.7175 24.286H44.0386V24.2851ZM45.3688 26.0314C45.2726 26.6887 45.0295 27.1865 44.6414 27.5252C44.2534 27.8645 43.6874 28.035 42.9452 28.035C42.0518 28.035 41.3786 27.7656 40.9287 27.2288C40.4788 26.6919 40.2535 25.9307 40.2535 24.9456C40.2535 24.4538 40.3179 24.0148 40.4496 23.6306C40.5797 23.2463 40.7644 22.9204 41.0008 22.651C41.2384 22.3826 41.5222 22.1799 41.8522 22.0415C42.1827 21.9032 42.5466 21.8342 42.9456 21.8342C43.7704 21.8342 44.391 22.0921 44.8066 22.6069C45.2226 23.1222 45.4315 23.8158 45.4315 24.6882V25.3147H41.6976C41.7108 25.7854 41.8209 26.1522 42.0268 26.4175C42.2335 26.6822 42.5432 26.8151 42.9549 26.8151C43.5264 26.8151 43.8632 26.554 43.9666 26.0314H45.3688ZM45.892 22.0138H47.295V22.8306C47.4734 22.5244 47.6898 22.2946 47.9444 22.142C48.1982 21.9894 48.4663 21.9131 48.7485 21.9131C48.8866 21.9131 49.0001 21.9186 49.0895 21.9292C49.178 21.9411 49.2573 21.954 49.3259 21.9687L49.1505 23.3904C48.9861 23.3449 48.7824 23.3238 48.5426 23.3238C48.3837 23.3238 48.2329 23.3445 48.0885 23.3845C47.9444 23.4258 47.814 23.5021 47.697 23.6143C47.5729 23.7338 47.4818 23.8685 47.4229 24.0165C47.3653 24.1668 47.3353 24.3194 47.3353 24.4752V27.856H45.892V22.0138ZM55.2623 27.8557V22.0139H56.7065V27.8557H55.2623ZM62.2893 25.7404C62.2347 26.4414 62.0135 26.9989 61.6255 27.4145C61.2362 27.8277 60.6528 28.0359 59.8759 28.0359C59.4218 28.0359 59.0308 27.9605 58.7003 27.8116C58.3703 27.6627 58.1005 27.4535 57.8904 27.1851C57.6811 26.9167 57.5248 26.5917 57.4214 26.2106C57.3189 25.8309 57.2668 25.409 57.2668 24.9466C57.2668 24.4837 57.3274 24.0608 57.4468 23.6765C57.5676 23.2923 57.7417 22.9636 57.9683 22.6915C58.1949 22.4184 58.4737 22.2084 58.8037 22.0594C59.1333 21.9096 59.5103 21.8351 59.9382 21.8351C60.3033 21.8351 60.6211 21.8852 60.8926 21.9868C61.165 22.0879 61.3933 22.2268 61.578 22.406C61.7636 22.5858 61.9085 22.8 62.0118 23.0496C62.1143 23.2991 62.1838 23.574 62.2177 23.8723L60.763 24.0842C60.7282 23.7859 60.6494 23.5464 60.5262 23.363C60.402 23.1801 60.1885 23.0877 59.8865 23.0877C59.6662 23.0877 59.4845 23.1387 59.3396 23.2399C59.1951 23.3405 59.0808 23.477 58.9948 23.6476C58.9092 23.8199 58.8482 24.0148 58.8134 24.2355C58.7796 24.4556 58.7622 24.6855 58.7622 24.924C58.7622 25.1695 58.7796 25.4053 58.8134 25.6282C58.8482 25.8525 58.9075 26.0502 58.9888 26.2217C59.071 26.3931 59.185 26.5296 59.3298 26.6307C59.4739 26.7314 59.656 26.7815 59.8759 26.7815C60.1648 26.7815 60.3881 26.6928 60.5461 26.5131C60.7049 26.3338 60.7977 26.0764 60.8248 25.7404H62.2893ZM66.4813 24.2851C66.4813 23.8829 66.3902 23.5694 66.2081 23.346C66.0263 23.1226 65.7425 23.0105 65.3578 23.0105C65.1651 23.0105 64.9956 23.0436 64.852 23.1107C64.7076 23.1783 64.5856 23.2697 64.4856 23.3856C64.3869 23.5014 64.3085 23.6352 64.2539 23.7887C64.1992 23.9413 64.1679 24.1072 64.1603 24.286H66.4813V24.2851ZM67.8123 26.0314C67.7158 26.6887 67.4734 27.1865 67.0846 27.5252C66.6965 27.8645 66.1305 28.035 65.3875 28.035C64.4953 28.035 63.8226 27.7656 63.3719 27.2288C62.9211 26.6919 62.6966 25.9307 62.6966 24.9456C62.6966 24.4538 62.7614 24.0148 62.8919 23.6306C63.022 23.2463 63.2071 22.9204 63.4439 22.651C63.682 22.3826 63.965 22.1799 64.2954 22.0415C64.6246 21.9032 64.9897 21.8342 65.3875 21.8342C66.2132 21.8342 66.8338 22.0921 67.2498 22.6069C67.6662 23.1222 67.8738 23.8158 67.8738 24.6882V25.3147H64.1403C64.1539 25.7854 64.2645 26.1522 64.4699 26.4175C64.6767 26.6822 64.9863 26.8151 65.3981 26.8151C65.9691 26.8151 66.3068 26.554 66.4093 26.0314H67.8123ZM44.7837 12.7627C45.0802 13.1093 45.2272 13.6563 45.2272 14.4023V18.2634H43.7826V14.6151C43.7826 14.2046 43.7115 13.9247 43.567 13.7753C43.4221 13.6264 43.2294 13.5515 42.9883 13.5515C42.8036 13.5515 42.6439 13.5813 42.5101 13.6411C42.3749 13.7008 42.2495 13.7868 42.133 13.8985C42.0377 14.0028 41.956 14.1279 41.8911 14.2731C41.8259 14.4188 41.7924 14.5774 41.7924 14.7489V18.2634H40.3487V10.7972H41.7924V13.1598C42.0059 12.8468 42.2533 12.6151 42.5355 12.4662C42.8168 12.3168 43.1142 12.2423 43.4226 12.2423C44.0347 12.2423 44.4884 12.4156 44.7837 12.7627ZM44.0829 6.59995C44.1451 6.36874 44.1756 6.08927 44.1756 5.76016C44.1756 5.41725 44.1456 5.12997 44.0879 4.89876C44.0291 4.66755 43.949 4.47909 43.8452 4.33338C43.7427 4.18767 43.6203 4.08332 43.4788 4.01989C43.3381 3.95646 43.1886 3.92474 43.0314 3.92474C42.8518 3.92474 42.6967 3.95094 42.5671 4.00334C42.4354 4.05574 42.3091 4.13756 42.185 4.24972C42.0473 4.39129 41.9457 4.5701 41.8804 4.7866C41.8156 5.0031 41.7826 5.27889 41.7826 5.6149V5.79371C41.7826 6.17431 41.8126 6.4786 41.8703 6.70613C41.9291 6.93412 42.0236 7.11845 42.1541 7.26002C42.2913 7.39424 42.4307 7.48204 42.5722 7.52294C42.7124 7.56431 42.856 7.58454 42.9996 7.58454C43.1577 7.58454 43.3093 7.55098 43.4533 7.48387C43.5978 7.41676 43.7228 7.31012 43.8295 7.16487C43.9363 7.01962 44.021 6.83116 44.0829 6.59995ZM45.1237 3.47749C45.4944 4.03 45.6812 4.78706 45.6812 5.74912C45.6812 6.212 45.6274 6.63305 45.5211 7.01364C45.4152 7.39424 45.2601 7.72106 45.0576 7.99318C44.8539 8.26529 44.6082 8.47582 44.3205 8.62521C44.0308 8.77413 43.7046 8.8486 43.3398 8.8486C43.0717 8.8486 42.8052 8.79666 42.5404 8.69232C42.2757 8.58797 42.0266 8.37929 41.7927 8.0658V10.2717H40.349V2.828H41.7521V3.60022C42.1642 2.96635 42.7277 2.64919 43.4432 2.64919C44.1922 2.64919 44.753 2.92499 45.1237 3.47749ZM55.9841 19.6643C56.4154 19.6643 56.764 20.043 56.764 20.51C56.764 20.977 56.4154 21.3558 55.9841 21.3558C55.5537 21.3558 55.2046 20.977 55.2046 20.51C55.2046 20.043 55.5537 19.6643 55.9841 19.6643ZM58.0898 0.478271C58.5207 0.478271 58.8697 0.85703 58.8697 1.3245C58.8697 1.79197 58.5207 2.17073 58.0898 2.17073C57.659 2.17073 57.3099 1.79197 57.3099 1.3245C57.3099 0.85703 57.659 0.478271 58.0898 0.478271ZM67.7398 0.478271C68.1706 0.478271 68.5197 0.85703 68.5197 1.3245C68.5197 1.79197 68.1706 2.17073 67.7398 2.17073C67.3085 2.17073 66.9595 1.79197 66.9595 1.3245C66.9595 0.85703 67.3085 0.478271 67.7398 0.478271ZM49.547 22.0138H51.2173L52.2459 26.0762L53.3456 22.0138H54.944L52.9673 27.8556H51.5236L49.547 22.0138Z" fill="white"/>
<path fill-rule="evenodd" clip-rule="evenodd" d="M11.0861 14.2676L4.59191 21.3127L1.34523 17.7908C-0.44841 15.8451 -0.44841 12.69 1.34523 10.7452C3.13802 8.79856 6.04622 8.79856 7.83774 10.7452L11.0861 14.2676ZM24.1005 10.7447C25.8933 12.69 25.8933 15.8446 24.1 17.7908L20.8534 21.3127L14.3608 14.2675L17.608 10.7447C19.3999 8.79806 22.3077 8.79806 24.1005 10.7447ZM15.9545 8.98243C14.1634 10.9282 11.2548 10.9286 9.46117 8.98243C7.6688 7.03762 7.6688 3.88345 9.46117 1.93773C11.2548 -0.00846216 14.163 -0.00846207 15.9545 1.93727C17.749 3.88345 17.749 7.03762 15.9545 8.98243ZM12.7366 16.0292L19.2295 23.0757L15.9833 26.5976C14.1913 28.5438 11.2827 28.5438 9.48989 26.5986L6.24321 23.0757L12.7366 16.0292Z" fill="white"/>
</svg>
