<?xml version="1.0" encoding="utf-8"?>
<!-- Generator: Adobe Illustrator 21.0.0, SVG Export Plug-In . SVG Version: 6.00 Build 0)  -->
<svg version="1.1" id="Layer_1" xmlns="http://www.w3.org/2000/svg" xmlns:xlink="http://www.w3.org/1999/xlink" x="0px" y="0px"
	 viewBox="0 0 220 110" style="enable-background:new 0 0 220 110;" xml:space="preserve">
<style type="text/css">
	.st0{fill:#222222;}
</style>
<g>
	<path class="st0" d="M74.9,80.4c0,2-0.8,2.3-2.2,2.3h-6.4c-1.4,0-2.5-0.5-3.3-1.7L40.3,51h-0.2v29.5c0,1.7-0.8,2.3-2.3,2.3h-7
		c-1.7,0-2.5-0.4-2.5-2.2v-48c0-2,0.9-2.3,2.5-2.3h6.4c1.5,0,2.3,0.5,3.1,1.6l22.6,30.3h0.2V32.4c0-1.7,0.8-2.2,2.3-2.2h7.3
		c2,0,2.1,1.1,2.1,2.3V80.4z"/>
	<path class="st0" d="M99,80.8c0,0.9-0.6,1.7-1.7,1.7h-8.7c-1.1,0-1.7-0.8-1.7-1.7V31.8c0-0.9,0.6-1.7,1.7-1.7h8.7
		c1.1,0,1.7,0.8,1.7,1.7V80.8z"/>
	<path class="st0" d="M149.9,34.5l-2.2,6.4c-0.3,0.8-0.6,1.1-1.1,1.1c-0.3,0-0.6-0.2-1-0.3c-4-1.9-7.1-2.6-10.7-2.6
		c-7.9,0-12.9,6.1-12.9,17.1c0,12,5.8,17.1,13.2,17.1c3.6,0,6.7-0.7,10.2-2.1c0.5-0.2,0.8-0.3,1.1-0.3c0.7,0,1.1,0.3,1.4,1.2
		l1.9,5.6c0.2,0.5,0.2,0.8,0.2,1.2c0,0.8-0.3,1.3-1.4,1.7c-5.2,2-9.5,3-15.4,3c-16.1,0-24.2-10.7-24.2-27c0-16.4,9.9-27.7,25.1-27.7
		c5.5,0,10.1,1.1,14.5,3c1.1,0.5,1.4,1,1.4,1.5C150.1,33.7,150,34.1,149.9,34.5"/>
	<path class="st0" d="M191.1,30c1.5,0,2,0.8,1.9,1.7l-0.7,6.1c-0.2,1.6-1.1,1.9-3,1.9h-18.3v11.3h17.2c1.7,0,2.3,0.8,2.3,2v5.5
		c0,1.5-0.8,2.2-2.2,2.2h-17.3v12h19.8c1.4,0,2.2,0.6,2.2,2v5.6c0,1.4-0.7,2.1-2.1,2.1h-29.4c-1.7,0-2.5-0.5-2.5-2.3V32.1
		c0-1.3,0.7-2.1,2-2.1H191.1z"/>
</g>
</svg>
