<?xml version="1.0" encoding="utf-8"?>
<!-- Generator: Adobe Illustrator 16.0.0, SVG Export Plug-In . SVG Version: 6.00 Build 0)  -->
<!DOCTYPE svg PUBLIC "-//W3C//DTD SVG 1.1//EN" "http://www.w3.org/Graphics/SVG/1.1/DTD/svg11.dtd">
<svg version="1.1" id="Layer_1" xmlns="http://www.w3.org/2000/svg" xmlns:xlink="http://www.w3.org/1999/xlink" x="0px" y="0px"
	 width="91px" height="30px" viewBox="0 0 91 30" enable-background="new 0 0 91 30" xml:space="preserve">
<g>
	<path fill="#FFFFFF" d="M25.512,28.263c0,1.08-0.457,1.289-1.205,1.289h-3.532c-0.748,0-1.371-0.292-1.829-0.915L6.565,12.143
		H6.482v16.161c0,0.915-0.416,1.248-1.247,1.248H1.372C0.416,29.552,0,29.343,0,28.347V2.004c0-1.081,0.499-1.288,1.372-1.288h3.49
		c0.83,0,1.246,0.25,1.703,0.873l12.381,16.619h0.084V1.921c0-0.914,0.457-1.205,1.288-1.205h4.031c1.079,0,1.162,0.581,1.162,1.288
		V28.263z"/>
	<path fill="#FFFFFF" d="M38.755,28.502c0,0.5-0.332,0.955-0.914,0.955h-4.778c-0.623,0-0.914-0.455-0.914-0.913V1.578
		c0-0.499,0.333-0.955,0.914-0.955h4.778c0.624,0,0.914,0.456,0.914,0.914V28.502z"/>
	<path fill="#FFFFFF" d="M66.68,3.074l-1.206,3.491c-0.165,0.416-0.331,0.623-0.622,0.623c-0.167,0-0.334-0.083-0.541-0.167
		c-2.201-1.037-3.906-1.411-5.857-1.411c-4.322,0-7.105,3.323-7.105,9.389c0,6.566,3.157,9.39,7.23,9.39
		c1.951,0,3.656-0.372,5.608-1.163c0.249-0.084,0.458-0.166,0.624-0.166c0.373,0,0.58,0.166,0.747,0.665l1.039,3.075
		c0.083,0.248,0.124,0.454,0.124,0.664c0,0.416-0.166,0.705-0.748,0.912c-2.867,1.083-5.236,1.623-8.435,1.623
		c-8.81,0-13.254-5.861-13.254-14.791C44.284,6.232,49.727,0,58.078,0c2.991,0,5.527,0.582,7.936,1.662
		c0.583,0.249,0.791,0.54,0.791,0.831C66.805,2.659,66.763,2.867,66.68,3.074"/>
	<path fill="#FFFFFF" d="M89.303,0.623c0.83,0,1.079,0.416,1.037,0.955l-0.374,3.366c-0.083,0.873-0.623,1.04-1.62,1.04H78.29v6.188
		h9.433c0.915,0,1.246,0.458,1.246,1.123v3.034c0,0.83-0.414,1.204-1.204,1.204H78.29V24.1h10.845c0.748,0,1.205,0.331,1.205,1.12
		v3.075c0,0.789-0.374,1.164-1.163,1.164H73.055c-0.956,0-1.371-0.249-1.371-1.29V1.786c0-0.706,0.375-1.163,1.08-1.163H89.303z"/>
</g>
</svg>
