<?xml version="1.0" encoding="utf-8"?>
<!-- Generator: Adobe Illustrator 16.0.0, SVG Export Plug-In . SVG Version: 6.00 Build 0)  -->
<!DOCTYPE svg PUBLIC "-//W3C//DTD SVG 1.1//EN" "http://www.w3.org/Graphics/SVG/1.1/DTD/svg11.dtd">
<svg version="1.1" id="Layer_1" xmlns="http://www.w3.org/2000/svg" xmlns:xlink="http://www.w3.org/1999/xlink" x="0px" y="0px"
	 width="355px" height="36px" viewBox="0 0 355 36" enable-background="new 0 0 355 36" xml:space="preserve">
<g>
	<path fill="#FFFFFF" d="M30.615,33.916c0,1.296-0.548,1.547-1.446,1.547h-4.238c-0.897,0-1.645-0.351-2.194-1.098L7.878,14.572
		H7.779v19.394c0,1.098-0.5,1.497-1.496,1.497H1.646C0.499,35.463,0,35.212,0,34.017V2.406C0,1.109,0.599,0.86,1.646,0.86h4.188
		c0.996,0,1.495,0.3,2.043,1.047l14.858,19.943h0.101V2.306c0-1.096,0.548-1.445,1.546-1.445h4.837c1.295,0,1.395,0.697,1.395,1.545
		V33.916z"/>
	<path fill="#FFFFFF" d="M46.508,34.203c0,0.601-0.398,1.146-1.097,1.146h-5.734c-0.747,0-1.096-0.546-1.096-1.096V1.894
		c0-0.599,0.399-1.145,1.096-1.145h5.734c0.749,0,1.097,0.546,1.097,1.096V34.203z"/>
	<path fill="#FFFFFF" d="M80.017,3.689L78.57,7.878c-0.197,0.5-0.397,0.747-0.746,0.747c-0.201,0-0.4-0.1-0.649-0.2
		c-2.643-1.244-4.688-1.693-7.03-1.693c-5.187,0-8.526,3.988-8.526,11.267c0,7.878,3.789,11.268,8.676,11.268
		c2.342,0,4.388-0.447,6.731-1.396c0.299-0.101,0.549-0.199,0.748-0.199c0.448,0,0.697,0.199,0.897,0.799l1.247,3.69
		c0.099,0.297,0.149,0.545,0.149,0.797c0,0.499-0.2,0.846-0.897,1.095C75.729,35.352,72.886,36,69.048,36
		c-10.572,0-15.905-7.034-15.905-17.75C53.143,7.479,59.674,0,69.696,0c3.589,0,6.632,0.698,9.523,1.995
		c0.699,0.299,0.949,0.647,0.949,0.997C80.168,3.191,80.118,3.44,80.017,3.689"/>
	<path fill="#FFFFFF" d="M107.166,0.749c0.998,0,1.295,0.499,1.245,1.146l-0.449,4.04c-0.1,1.047-0.748,1.248-1.944,1.248H93.951
		v7.426h11.319c1.098,0,1.496,0.549,1.496,1.348v3.64c0,0.995-0.498,1.444-1.445,1.444h-11.37v7.881h13.013
		c0.898,0,1.447,0.396,1.447,1.344v3.69c0,0.947-0.449,1.396-1.396,1.396H87.668c-1.147,0-1.645-0.299-1.645-1.548V2.144
		c0-0.847,0.449-1.395,1.296-1.395H107.166z"/>
</g>
<polygon fill="#FFFFFF" points="130.158,3.733 130.158,16.785 128.443,16.785 120.379,5.763 120.379,16.785 118.9,16.785 
	118.9,3.733 120.616,3.733 128.68,14.714 128.68,3.733 "/>
<g>
	<path fill="#FFFFFF" d="M136.641,15.601c1.064,0,1.906-0.367,2.524-1.104c0.591-0.697,0.888-1.576,0.888-2.642
		c0-1.064-0.297-1.944-0.888-2.642c-0.618-0.736-1.459-1.104-2.524-1.104c-1.051,0-1.905,0.368-2.563,1.104
		c-0.618,0.698-0.926,1.578-0.926,2.642c0,1.065,0.309,1.945,0.926,2.642C134.735,15.234,135.589,15.601,136.641,15.601
		 M139.973,15.208c-0.788,1.157-1.964,1.735-3.529,1.735c-1.419,0-2.577-0.493-3.47-1.479c-0.867-0.972-1.301-2.174-1.301-3.608
		c0-1.433,0.434-2.635,1.301-3.608c0.894-0.985,2.083-1.477,3.569-1.477c1.485,0,2.629,0.584,3.43,1.753V6.927h1.479v9.858h-1.479
		V15.208z"/>
</g>
<polygon fill="#FFFFFF" points="144.882,16.785 144.882,8.228 142.872,8.228 142.872,6.926 144.882,6.926 144.882,3.397 
	146.361,3.397 146.361,6.926 148.628,6.926 148.628,8.228 146.361,8.228 146.361,16.785 "/>
<path fill="#FFFFFF" d="M150.048,6.926h1.479v9.859h-1.479V6.926z M151.585,5.271h-1.597V3.338h1.597V5.271z"/>
<g>
	<path fill="#FFFFFF" d="M158.171,15.602c1.064,0,1.905-0.368,2.524-1.104c0.591-0.696,0.886-1.577,0.886-2.642
		c0-1.065-0.295-1.945-0.886-2.642c-0.619-0.736-1.46-1.104-2.524-1.104s-1.905,0.368-2.524,1.104
		c-0.591,0.697-0.887,1.577-0.887,2.642c0,1.065,0.296,1.946,0.887,2.642C156.266,15.234,157.106,15.602,158.171,15.602
		 M158.171,6.769c1.472,0,2.669,0.493,3.588,1.479c0.868,0.946,1.302,2.149,1.302,3.608c0,1.459-0.434,2.662-1.302,3.608
		c-0.919,0.986-2.116,1.478-3.588,1.478c-1.473,0-2.669-0.492-3.588-1.478c-0.868-0.947-1.302-2.149-1.302-3.608
		c0-1.459,0.434-2.662,1.302-3.608C155.502,7.262,156.698,6.769,158.171,6.769"/>
	<path fill="#FFFFFF" d="M166.294,6.926v1.538c0.355-0.473,0.789-0.874,1.302-1.202c0.514-0.328,1.097-0.493,1.755-0.493
		c0.656,0,1.222,0.093,1.695,0.276c0.473,0.185,0.887,0.46,1.241,0.828c0.816,0.802,1.223,1.861,1.223,3.175v5.738h-1.478v-5.699
		c0-0.908-0.258-1.63-0.77-2.169c-0.513-0.539-1.176-0.808-1.992-0.808c-0.827,0-1.53,0.276-2.108,0.828
		c-0.579,0.565-0.868,1.289-0.868,2.168v5.68h-1.479V6.926H166.294z"/>
	<path fill="#FFFFFF" d="M179.757,15.601c1.063,0,1.905-0.367,2.521-1.104c0.593-0.697,0.89-1.576,0.89-2.642
		c0-1.064-0.297-1.944-0.89-2.642c-0.616-0.736-1.458-1.104-2.521-1.104c-1.053,0-1.908,0.368-2.564,1.104
		c-0.618,0.698-0.927,1.578-0.927,2.642c0,1.065,0.309,1.945,0.927,2.642C177.849,15.234,178.704,15.601,179.757,15.601
		 M183.088,15.208c-0.789,1.157-1.965,1.735-3.53,1.735c-1.42,0-2.576-0.493-3.469-1.479c-0.867-0.972-1.303-2.174-1.303-3.608
		c0-1.433,0.436-2.635,1.303-3.608c0.893-0.985,2.082-1.477,3.567-1.477s2.631,0.584,3.432,1.753V6.927h1.477v9.858h-1.477V15.208z"
		/>
</g>
<rect x="186.932" y="2.984" fill="#FFFFFF" width="1.479" height="13.801"/>
<rect x="195.095" y="3.733" fill="#FFFFFF" width="1.479" height="13.052"/>
<g>
	<path fill="#FFFFFF" d="M200.733,6.926v1.538c0.356-0.473,0.79-0.874,1.304-1.202c0.511-0.328,1.095-0.493,1.752-0.493
		c0.658,0,1.224,0.093,1.696,0.276c0.472,0.185,0.888,0.46,1.241,0.828c0.814,0.802,1.224,1.861,1.224,3.175v5.738h-1.479v-5.699
		c0-0.908-0.256-1.63-0.769-2.169c-0.512-0.539-1.176-0.808-1.992-0.808c-0.826,0-1.529,0.276-2.106,0.828
		c-0.58,0.565-0.87,1.289-0.87,2.168v5.68h-1.479V6.926H200.733z"/>
	<path fill="#FFFFFF" d="M216.015,9.568c-0.132-1.025-0.956-1.538-2.476-1.538c-1.518,0-2.278,0.473-2.278,1.419
		c0,0.394,0.162,0.693,0.484,0.897c0.321,0.204,0.726,0.372,1.214,0.502c0.484,0.132,1.014,0.253,1.586,0.365
		c0.573,0.112,1.101,0.27,1.586,0.473c0.486,0.205,0.893,0.484,1.215,0.838c0.321,0.355,0.481,0.841,0.481,1.459
		c0,0.959-0.36,1.693-1.084,2.199c-0.722,0.506-1.703,0.758-2.938,0.758c-1.314,0-2.359-0.328-3.136-0.985
		c-0.71-0.578-1.091-1.334-1.144-2.268h1.538c0.092,0.906,0.605,1.518,1.539,1.833c0.342,0.105,0.68,0.157,1.016,0.157
		c0.335,0,0.647-0.02,0.936-0.058c0.289-0.04,0.572-0.112,0.849-0.217c0.63-0.25,0.947-0.677,0.947-1.282
		c0-0.406-0.162-0.72-0.484-0.936c-0.321-0.217-0.726-0.395-1.212-0.533c-0.488-0.138-1.016-0.263-1.588-0.375
		c-0.57-0.111-1.1-0.265-1.586-0.462c-0.488-0.198-0.891-0.467-1.215-0.809c-0.321-0.342-0.48-0.815-0.48-1.419
		c0-0.894,0.323-1.587,0.974-2.079c0.65-0.494,1.614-0.741,2.89-0.741c1.209,0,2.161,0.289,2.859,0.867
		c0.577,0.487,0.913,1.131,1.004,1.933H216.015z"/>
</g>
<polygon fill="#FFFFFF" points="220.588,16.785 220.588,8.228 218.578,8.228 218.578,6.926 220.588,6.926 220.588,3.397 
	222.067,3.397 222.067,6.926 224.336,6.926 224.336,8.228 222.067,8.228 222.067,16.785 "/>
<path fill="#FFFFFF" d="M225.755,6.926h1.479v9.859h-1.479V6.926z M227.293,5.271h-1.598V3.338h1.598V5.271z"/>
<polygon fill="#FFFFFF" points="230.661,16.785 230.661,8.228 228.653,8.228 228.653,6.926 230.661,6.926 230.661,3.397 
	232.141,3.397 232.141,6.926 234.409,6.926 234.409,8.228 232.141,8.228 232.141,16.785 "/>
<g>
	<path fill="#FFFFFF" d="M242.946,16.785v-1.538c-0.356,0.473-0.79,0.874-1.301,1.203c-0.514,0.328-1.098,0.493-1.755,0.493
		s-1.224-0.092-1.695-0.276c-0.476-0.185-0.889-0.46-1.244-0.829c-0.814-0.801-1.221-1.86-1.221-3.174V6.926h1.479v5.698
		c0,0.908,0.256,1.631,0.767,2.17c0.514,0.539,1.178,0.807,1.992,0.807c0.829,0,1.531-0.276,2.111-0.827
		c0.577-0.565,0.867-1.289,0.867-2.168v-5.68h1.479v9.859H242.946z"/>
</g>
<polygon fill="#FFFFFF" points="247.855,16.785 247.855,8.228 245.845,8.228 245.845,6.926 247.855,6.926 247.855,3.397 
	249.334,3.397 249.334,6.926 251.603,6.926 251.603,8.228 249.334,8.228 249.334,16.785 "/>
<g>
	<path fill="#FFFFFF" d="M257.103,8.11c-0.906,0-1.669,0.283-2.287,0.847c-0.579,0.541-0.934,1.243-1.065,2.11h6.705
		c-0.133-0.868-0.488-1.57-1.066-2.11C258.772,8.393,258.011,8.11,257.103,8.11 M257.221,15.602c1.326,0,2.28-0.553,2.857-1.655
		h1.618c-0.343,0.893-0.886,1.616-1.627,2.168c-0.742,0.551-1.7,0.828-2.869,0.828c-1.483,0-2.692-0.493-3.626-1.479
		c-0.908-0.96-1.36-2.163-1.36-3.608c0-1.459,0.434-2.662,1.301-3.608c0.92-0.986,2.115-1.479,3.588-1.479
		c1.472,0,2.667,0.493,3.587,1.479c0.87,0.946,1.304,2.149,1.304,3.608v0.591h-8.262c0.105,0.907,0.466,1.657,1.084,2.248
		C255.445,15.299,256.249,15.602,257.221,15.602"/>
	<path fill="#FFFFFF" d="M271.852,4.225c-0.698,0-1.221,0.155-1.57,0.465c-0.347,0.308-0.52,0.805-0.52,1.488v0.749h2.286v1.301
		h-2.286v8.556h-1.479V8.228h-1.698V6.927h1.698V6.059c0-1.077,0.322-1.886,0.966-2.425s1.538-0.809,2.682-0.809h0.118v1.399
		H271.852z"/>
	<path fill="#FFFFFF" d="M277.548,15.602c1.065,0,1.908-0.368,2.524-1.104c0.591-0.696,0.888-1.577,0.888-2.642
		c0-1.065-0.297-1.945-0.888-2.642c-0.616-0.736-1.459-1.104-2.524-1.104c-1.063,0-1.905,0.368-2.521,1.104
		c-0.594,0.697-0.888,1.577-0.888,2.642c0,1.065,0.294,1.946,0.888,2.642C275.643,15.234,276.484,15.602,277.548,15.602
		 M277.548,6.769c1.475,0,2.67,0.493,3.59,1.479c0.867,0.946,1.301,2.149,1.301,3.608c0,1.459-0.434,2.662-1.301,3.608
		c-0.92,0.986-2.115,1.478-3.59,1.478c-1.472,0-2.668-0.492-3.588-1.478c-0.867-0.947-1.301-2.149-1.301-3.608
		c0-1.459,0.434-2.662,1.301-3.608C274.88,7.262,276.076,6.769,277.548,6.769"/>
	<path fill="#FFFFFF" d="M289.398,6.769v1.479h-0.178c-1.063,0-1.933,0.426-2.602,1.28c-0.63,0.816-0.947,1.789-0.947,2.919v4.338
		h-1.479V6.926h1.479v2.426c0.317-1.026,0.998-1.782,2.052-2.267c0.434-0.211,0.956-0.316,1.575-0.316H289.398z"/>
</g>
<polygon fill="#FFFFFF" points="127.97,22.31 127.97,28.108 120.379,28.108 120.379,22.31 118.901,22.31 118.901,35.363 
	120.379,35.363 120.379,29.548 127.97,29.548 127.97,35.363 129.448,35.363 129.448,22.31 "/>
<g>
	<path fill="#FFFFFF" d="M136.232,26.688c-0.909,0-1.67,0.283-2.288,0.847c-0.579,0.539-0.934,1.241-1.064,2.111h6.703
		c-0.131-0.87-0.486-1.572-1.064-2.111C137.9,26.972,137.139,26.688,136.232,26.688 M136.35,34.181c1.328,0,2.281-0.555,2.86-1.656
		h1.615c-0.34,0.895-0.882,1.615-1.625,2.168c-0.743,0.552-1.699,0.828-2.869,0.828c-1.485,0-2.695-0.493-3.628-1.479
		c-0.907-0.959-1.36-2.162-1.36-3.608c0-1.458,0.434-2.661,1.301-3.608c0.92-0.985,2.116-1.479,3.589-1.479
		c1.471,0,2.667,0.493,3.588,1.479c0.867,0.947,1.301,2.15,1.301,3.608v0.591h-8.261c0.105,0.908,0.466,1.657,1.084,2.248
		C134.575,33.877,135.376,34.181,136.35,34.181"/>
	<path fill="#FFFFFF" d="M147.095,34.179c1.064,0,1.905-0.365,2.524-1.103c0.591-0.698,0.888-1.577,0.888-2.643
		s-0.296-1.944-0.888-2.643c-0.619-0.735-1.459-1.104-2.524-1.104c-1.052,0-1.906,0.369-2.563,1.104
		c-0.619,0.698-0.927,1.577-0.927,2.643s0.308,1.944,0.927,2.643C145.189,33.813,146.043,34.179,147.095,34.179 M150.428,33.786
		c-0.789,1.157-1.966,1.734-3.53,1.734c-1.42,0-2.577-0.493-3.471-1.479c-0.867-0.973-1.3-2.176-1.3-3.608
		c0-1.434,0.434-2.636,1.3-3.608c0.894-0.985,2.083-1.479,3.57-1.479c1.485,0,2.629,0.584,3.431,1.755v-1.598h1.479v9.859h-1.479
		V33.786z"/>
</g>
<rect x="154.271" y="21.562" fill="#FFFFFF" width="1.478" height="13.802"/>
<polygon fill="#FFFFFF" points="159.182,21.976 159.182,25.504 157.17,25.504 157.17,26.805 159.182,26.805 159.182,35.363 
	160.659,35.363 160.659,26.805 162.928,26.805 162.928,25.504 160.659,25.504 160.659,21.976 "/>
<g>
	<path fill="#FFFFFF" d="M165.826,21.562v5.48c0.354-0.472,0.788-0.874,1.301-1.202c0.512-0.329,1.098-0.493,1.755-0.493
		c0.656,0,1.223,0.091,1.695,0.276c0.473,0.185,0.887,0.461,1.242,0.828c0.815,0.801,1.222,1.86,1.222,3.175v5.737h-1.478v-5.699
		c0-0.908-0.257-1.629-0.769-2.168c-0.514-0.541-1.177-0.81-1.993-0.81c-0.827,0-1.529,0.278-2.108,0.828
		c-0.579,0.566-0.867,1.289-0.867,2.17v5.679h-1.479V21.562H165.826z"/>
	<path fill="#FFFFFF" d="M183.668,34.179c1.065,0,1.905-0.365,2.524-1.103c0.593-0.698,0.888-1.577,0.888-2.643
		s-0.295-1.944-0.888-2.643c-0.619-0.735-1.459-1.104-2.524-1.104c-1.052,0-1.905,0.369-2.563,1.104
		c-0.619,0.698-0.927,1.577-0.927,2.643s0.308,1.944,0.927,2.643C181.763,33.813,182.616,34.179,183.668,34.179 M187,33.786
		c-0.787,1.157-1.965,1.734-3.528,1.734c-1.42,0-2.576-0.493-3.471-1.479c-0.867-0.973-1.301-2.176-1.301-3.608
		c0-1.434,0.434-2.636,1.301-3.608c0.895-0.985,2.083-1.479,3.568-1.479c1.486,0,2.63,0.584,3.431,1.755v-1.598h1.48v9.859H187
		V33.786z"/>
	<path fill="#FFFFFF" d="M191.945,25.504v1.538c0.355-0.472,0.787-0.874,1.301-1.202c0.514-0.329,1.098-0.493,1.755-0.493
		s1.224,0.091,1.695,0.276c0.475,0.185,0.888,0.461,1.242,0.828c0.814,0.801,1.223,1.86,1.223,3.175v5.737h-1.479v-5.699
		c0-0.908-0.256-1.629-0.77-2.168c-0.511-0.541-1.177-0.808-1.992-0.808c-0.828,0-1.531,0.276-2.108,0.826
		c-0.58,0.566-0.867,1.289-0.867,2.17v5.679h-1.479v-9.859H191.945z"/>
	<path fill="#FFFFFF" d="M205.405,34.179c1.065,0,1.908-0.365,2.524-1.103c0.591-0.698,0.888-1.577,0.888-2.643
		s-0.297-1.944-0.888-2.643c-0.616-0.735-1.459-1.104-2.524-1.104c-1.05,0-1.905,0.369-2.561,1.104
		c-0.618,0.698-0.927,1.577-0.927,2.643s0.309,1.944,0.927,2.643C203.5,33.813,204.355,34.179,205.405,34.179 M208.739,33.786
		c-0.789,1.157-1.967,1.734-3.53,1.734c-1.42,0-2.576-0.493-3.469-1.479c-0.867-0.973-1.303-2.176-1.303-3.608
		c0-1.434,0.436-2.636,1.303-3.608c0.893-0.985,2.081-1.479,3.566-1.479c1.486,0,2.63,0.584,3.433,1.755v-5.54h1.477v13.802h-1.477
		V33.786z"/>
	<path fill="#FFFFFF" d="M223.097,34.083c0.936,0,1.752-0.237,2.455-0.713c0.703-0.472,1.226-1.108,1.567-1.91h1.56
		c-0.437,1.235-1.153,2.207-2.15,2.917c-1.065,0.763-2.32,1.144-3.768,1.144c-1.905,0-3.448-0.65-4.633-1.951
		c-1.118-1.248-1.675-2.825-1.675-4.733c0-1.905,0.557-3.482,1.675-4.73c1.185-1.304,2.728-1.95,4.633-1.95
		c1.447,0,2.702,0.379,3.768,1.14c0.997,0.712,1.714,1.685,2.15,2.919h-1.56c-0.342-0.801-0.864-1.44-1.567-1.912
		c-0.703-0.473-1.52-0.71-2.455-0.71c-0.934,0-1.71,0.135-2.326,0.403c-0.618,0.27-1.136,0.642-1.556,1.114
		c-0.856,0.961-1.283,2.202-1.283,3.727s0.427,2.769,1.283,3.727C220.106,33.576,221.403,34.083,223.097,34.083"/>
	<path fill="#FFFFFF" d="M234.729,34.179c1.065,0,1.905-0.365,2.523-1.103c0.592-0.698,0.888-1.577,0.888-2.643
		s-0.296-1.944-0.888-2.643c-0.618-0.735-1.458-1.104-2.523-1.104c-1.053,0-1.906,0.369-2.563,1.104
		c-0.618,0.698-0.926,1.577-0.926,2.643s0.308,1.944,0.926,2.643C232.822,33.813,233.676,34.179,234.729,34.179 M238.061,33.786
		c-0.788,1.157-1.965,1.734-3.528,1.734c-1.42,0-2.577-0.493-3.472-1.479c-0.864-0.973-1.301-2.176-1.301-3.608
		c0-1.434,0.437-2.636,1.301-3.608c0.895-0.985,2.084-1.479,3.569-1.479c1.486,0,2.629,0.584,3.431,1.755v-1.598h1.479v9.859h-1.479
		V33.786z"/>
	<path fill="#FFFFFF" d="M247.111,25.347v1.479h-0.178c-1.064,0-1.932,0.427-2.603,1.28c-0.63,0.817-0.946,1.789-0.946,2.919v4.339
		h-1.479v-9.859h1.479v2.426c0.316-1.026,0.999-1.782,2.051-2.269c0.434-0.21,0.959-0.314,1.577-0.314H247.111z"/>
	<path fill="#FFFFFF" d="M252.533,26.688c-0.906,0-1.668,0.283-2.286,0.847c-0.58,0.539-0.934,1.241-1.066,2.111h6.705
		c-0.132-0.87-0.486-1.572-1.065-2.111C254.204,26.972,253.441,26.688,252.533,26.688 M252.652,34.181
		c1.328,0,2.279-0.555,2.859-1.656h1.615c-0.342,0.895-0.883,1.615-1.625,2.168c-0.743,0.552-1.699,0.828-2.87,0.828
		c-1.483,0-2.693-0.493-3.627-1.479c-0.908-0.959-1.359-2.162-1.359-3.608c0-1.458,0.434-2.661,1.301-3.608
		c0.919-0.985,2.115-1.479,3.587-1.479c1.473,0,2.668,0.493,3.59,1.479c0.867,0.947,1.301,2.15,1.301,3.608v0.591h-8.261
		c0.104,0.908,0.465,1.657,1.084,2.248C250.877,33.877,251.678,34.181,252.652,34.181"/>
</g>
<polygon fill="#FFFFFF" points="263.357,22.31 263.357,35.363 272.961,35.363 272.961,33.943 264.836,33.943 264.836,29.548 
	272.094,29.548 272.094,28.108 264.836,28.108 264.836,23.729 272.961,23.729 272.961,22.31 "/>
<polygon fill="#FFFFFF" points="280.827,25.504 278.303,29.23 275.761,25.504 273.867,25.504 277.436,30.276 273.629,35.363 
	275.503,35.363 278.303,31.342 281.085,35.363 282.977,35.363 279.15,30.276 282.722,25.504 "/>
<g>
	<path fill="#FFFFFF" d="M288.26,34.181c0.63,0,1.189-0.178,1.676-0.534c0.486-0.354,0.842-0.814,1.065-1.381h1.598
		c-0.304,0.975-0.856,1.758-1.657,2.349c-0.842,0.604-1.842,0.906-2.998,0.906c-1.445,0-2.62-0.493-3.528-1.479
		c-0.879-0.959-1.319-2.162-1.319-3.608c0-1.447,0.44-2.649,1.319-3.608c0.908-0.985,2.083-1.479,3.528-1.479
		c1.156,0,2.156,0.304,2.998,0.906c0.801,0.593,1.354,1.373,1.657,2.346h-1.598c-0.224-0.563-0.579-1.024-1.065-1.378
		c-0.486-0.356-1.046-0.532-1.676-0.532c-0.632,0-1.166,0.099-1.606,0.295c-0.44,0.195-0.813,0.468-1.113,0.81
		c-0.644,0.708-0.968,1.589-0.968,2.641s0.324,1.933,0.968,2.643C286.197,33.812,287.104,34.181,288.26,34.181"/>
	<path fill="#FFFFFF" d="M298.514,26.688c-0.908,0-1.67,0.283-2.289,0.847c-0.577,0.539-0.934,1.241-1.063,2.111h6.703
		c-0.13-0.87-0.486-1.572-1.063-2.111C300.182,26.972,299.42,26.688,298.514,26.688 M298.63,34.181c1.328,0,2.282-0.555,2.859-1.656
		h1.618c-0.342,0.895-0.885,1.615-1.627,2.168c-0.744,0.552-1.7,0.828-2.868,0.828c-1.486,0-2.695-0.493-3.629-1.479
		c-0.908-0.959-1.36-2.162-1.36-3.608c0-1.458,0.434-2.661,1.301-3.608c0.92-0.985,2.115-1.479,3.59-1.479
		c1.472,0,2.666,0.493,3.588,1.479c0.867,0.947,1.301,2.15,1.301,3.608v0.591h-8.262c0.105,0.908,0.466,1.657,1.084,2.248
		C296.857,33.877,297.658,34.181,298.63,34.181"/>
</g>
<rect x="305.018" y="21.562" fill="#FFFFFF" width="1.481" height="13.802"/>
<rect x="308.863" y="21.562" fill="#FFFFFF" width="1.479" height="13.802"/>
<path fill="#FFFFFF" d="M316.985,26.688c-0.906,0-1.668,0.283-2.287,0.847c-0.579,0.539-0.933,1.241-1.063,2.111h6.703
	c-0.133-0.87-0.486-1.572-1.066-2.111C318.656,26.972,317.894,26.688,316.985,26.688 M317.104,34.181c1.328,0,2.28-0.555,2.86-1.656
	h1.615c-0.342,0.895-0.883,1.615-1.625,2.168c-0.744,0.552-1.7,0.828-2.871,0.828c-1.483,0-2.692-0.493-3.626-1.479
	c-0.906-0.959-1.36-2.162-1.36-3.608c0-1.458,0.434-2.661,1.301-3.608c0.92-0.985,2.116-1.479,3.588-1.479s2.67,0.493,3.59,1.479
	c0.867,0.947,1.301,2.15,1.301,3.608v0.591h-8.262c0.105,0.908,0.466,1.657,1.084,2.248
	C315.328,33.877,316.13,34.181,317.104,34.181"/>
<path fill="#FFFFFF" d="M324.973,25.504v1.538c0.354-0.472,0.787-0.874,1.301-1.202c0.512-0.329,1.098-0.493,1.753-0.493
	c0.659,0,1.224,0.091,1.698,0.276c0.472,0.185,0.885,0.461,1.241,0.828c0.814,0.801,1.223,1.86,1.223,3.175v5.737h-1.479v-5.699
	c0-0.908-0.258-1.629-0.769-2.168c-0.514-0.541-1.178-0.808-1.993-0.808c-0.828,0-1.531,0.276-2.11,0.826
	c-0.578,0.566-0.865,1.289-0.865,2.17v5.679h-1.48v-9.859H324.973z"/>
<path fill="#FFFFFF" d="M339.01,34.181c0.63,0,1.189-0.178,1.676-0.534c0.485-0.354,0.84-0.814,1.065-1.381h1.595
	c-0.301,0.975-0.854,1.758-1.656,2.349c-0.84,0.604-1.837,0.906-2.994,0.906c-1.447,0-2.622-0.493-3.53-1.479
	c-0.881-0.959-1.321-2.162-1.321-3.608c0-1.447,0.44-2.649,1.321-3.608c0.908-0.985,2.083-1.479,3.53-1.479
	c1.157,0,2.154,0.304,2.994,0.906c0.803,0.593,1.355,1.373,1.656,2.346h-1.595c-0.226-0.563-0.58-1.024-1.065-1.378
	c-0.486-0.356-1.046-0.532-1.676-0.532c-0.632,0-1.166,0.099-1.606,0.295c-0.44,0.195-0.813,0.468-1.116,0.81
	c-0.644,0.708-0.965,1.589-0.965,2.641s0.321,1.933,0.965,2.643C336.947,33.812,337.854,34.181,339.01,34.181"/>
<path fill="#FFFFFF" d="M349.262,26.688c-0.906,0-1.668,0.283-2.287,0.847c-0.579,0.539-0.934,1.241-1.065,2.111h6.705
	c-0.133-0.87-0.486-1.572-1.066-2.111C350.932,26.972,350.17,26.688,349.262,26.688 M349.38,34.181c1.328,0,2.28-0.555,2.859-1.656
	h1.616c-0.343,0.895-0.883,1.615-1.625,2.168c-0.744,0.552-1.7,0.828-2.871,0.828c-1.483,0-2.692-0.493-3.626-1.479
	c-0.908-0.959-1.36-2.162-1.36-3.608c0-1.458,0.434-2.661,1.301-3.608c0.92-0.985,2.115-1.479,3.588-1.479
	c1.472,0,2.67,0.493,3.59,1.479c0.867,0.947,1.301,2.15,1.301,3.608v0.591h-8.262c0.105,0.908,0.466,1.657,1.084,2.248
	C347.604,33.877,348.405,34.181,349.38,34.181"/>
</svg>
