<?xml version="1.0" encoding="utf-8"?>
<!-- Generator: Adobe Illustrator 21.0.0, SVG Export Plug-In . SVG Version: 6.00 Build 0)  -->
<svg version="1.1" id="Layer_1" xmlns="http://www.w3.org/2000/svg" xmlns:xlink="http://www.w3.org/1999/xlink" x="0px" y="0px"
	 viewBox="0 0 620 110" style="enable-background:new 0 0 620 110;" xml:space="preserve">
<style type="text/css">
	.st0{fill:#FFFFFF;}
</style>
<g>
	<g>
		<polygon class="st0" points="222.1,28.8 222.1,50.3 219.2,50.3 206,32.1 206,50.3 203.5,50.3 203.5,28.8 206.4,28.8 219.6,46.9 
			219.6,28.8 		"/>
		<g>
			<path class="st0" d="M232.7,48.3c1.8,0,3.1-0.6,4.2-1.8c1-1.1,1.5-2.6,1.5-4.4c0-1.8-0.5-3.2-1.5-4.4c-1-1.2-2.4-1.8-4.2-1.8
				c-1.7,0-3.1,0.6-4.2,1.8c-1,1.1-1.5,2.6-1.5,4.4c0,1.8,0.5,3.2,1.5,4.4C229.6,47.7,231,48.3,232.7,48.3 M238.2,47.7
				c-1.3,1.9-3.2,2.9-5.8,2.9c-2.3,0-4.2-0.8-5.7-2.4c-1.4-1.6-2.1-3.6-2.1-5.9c0-2.4,0.7-4.3,2.1-5.9c1.5-1.6,3.4-2.4,5.9-2.4
				c2.4,0,4.3,1,5.7,2.9v-2.6h2.4v16.2h-2.4V47.7z"/>
		</g>
		<polygon class="st0" points="246.3,50.3 246.3,36.2 243,36.2 243,34.1 246.3,34.1 246.3,28.2 248.8,28.2 248.8,34.1 252.5,34.1 
			252.5,36.2 248.8,36.2 248.8,50.3 		"/>
		<path class="st0" d="M254.8,34.1h2.4v16.2h-2.4V34.1z M257.4,31.3h-2.6v-3.2h2.6V31.3z"/>
		<g>
			<path class="st0" d="M268.2,48.3c1.8,0,3.1-0.6,4.2-1.8c1-1.1,1.5-2.6,1.5-4.4c0-1.8-0.5-3.2-1.5-4.4c-1-1.2-2.4-1.8-4.2-1.8
				c-1.8,0-3.1,0.6-4.2,1.8c-1,1.1-1.5,2.6-1.5,4.4c0,1.8,0.5,3.2,1.5,4.4C265.1,47.7,266.5,48.3,268.2,48.3 M268.2,33.8
				c2.4,0,4.4,0.8,5.9,2.4c1.4,1.6,2.1,3.5,2.1,5.9c0,2.4-0.7,4.4-2.1,5.9c-1.5,1.6-3.5,2.4-5.9,2.4c-2.4,0-4.4-0.8-5.9-2.4
				c-1.4-1.6-2.1-3.5-2.1-5.9c0-2.4,0.7-4.4,2.1-5.9C263.8,34.6,265.8,33.8,268.2,33.8"/>
			<path class="st0" d="M281.6,34.1v2.5c0.6-0.8,1.3-1.4,2.1-2c0.8-0.5,1.8-0.8,2.9-0.8s2,0.2,2.8,0.5c0.8,0.3,1.5,0.8,2,1.4
				c1.3,1.3,2,3.1,2,5.2v9.5H291v-9.4c0-1.5-0.4-2.7-1.3-3.6c-0.8-0.9-1.9-1.3-3.3-1.3c-1.4,0-2.5,0.5-3.5,1.4
				c-1,0.9-1.4,2.1-1.4,3.6v9.4h-2.4V34.1H281.6z"/>
			<path class="st0" d="M303.8,48.3c1.8,0,3.1-0.6,4.2-1.8c1-1.1,1.5-2.6,1.5-4.4c0-1.8-0.5-3.2-1.5-4.4c-1-1.2-2.4-1.8-4.2-1.8
				c-1.7,0-3.1,0.6-4.2,1.8c-1,1.1-1.5,2.6-1.5,4.4c0,1.8,0.5,3.2,1.5,4.4C300.6,47.7,302,48.3,303.8,48.3 M309.2,47.7
				c-1.3,1.9-3.2,2.9-5.8,2.9c-2.3,0-4.2-0.8-5.7-2.4c-1.4-1.6-2.1-3.6-2.1-5.9c0-2.4,0.7-4.3,2.1-5.9c1.5-1.6,3.4-2.4,5.9-2.4
				c2.4,0,4.3,1,5.7,2.9v-2.6h2.4v16.2h-2.4V47.7z"/>
		</g>
		<rect x="315.6" y="27.6" class="st0" width="2.4" height="22.7"/>
		<rect x="329" y="28.8" class="st0" width="2.4" height="21.5"/>
		<g>
			<path class="st0" d="M338.3,34.1v2.5c0.6-0.8,1.3-1.4,2.1-2c0.8-0.5,1.8-0.8,2.9-0.8c1.1,0,2,0.2,2.8,0.5c0.8,0.3,1.5,0.8,2,1.4
				c1.3,1.3,2,3.1,2,5.2v9.5h-2.4v-9.4c0-1.5-0.4-2.7-1.3-3.6c-0.8-0.9-1.9-1.3-3.3-1.3c-1.4,0-2.5,0.5-3.5,1.4
				c-1,0.9-1.4,2.1-1.4,3.6v9.4h-2.4V34.1H338.3z"/>
			<path class="st0" d="M363.5,38.4c-0.2-1.7-1.6-2.5-4.1-2.5c-2.5,0-3.8,0.8-3.8,2.3c0,0.6,0.3,1.1,0.8,1.5c0.5,0.3,1.2,0.6,2,0.8
				c0.8,0.2,1.7,0.4,2.6,0.6c0.9,0.2,1.8,0.4,2.6,0.8c0.8,0.3,1.5,0.8,2,1.4c0.5,0.6,0.8,1.4,0.8,2.4c0,1.6-0.6,2.8-1.8,3.6
				c-1.2,0.8-2.8,1.3-4.8,1.3c-2.2,0-3.9-0.5-5.2-1.6c-1.2-1-1.8-2.2-1.9-3.7h2.5c0.2,1.5,1,2.5,2.5,3c0.6,0.2,1.1,0.3,1.7,0.3
				c0.6,0,1.1,0,1.5-0.1c0.5-0.1,0.9-0.2,1.4-0.4c1-0.4,1.6-1.1,1.6-2.1c0-0.7-0.3-1.2-0.8-1.5c-0.5-0.4-1.2-0.6-2-0.9
				c-0.8-0.2-1.7-0.4-2.6-0.6c-0.9-0.2-1.8-0.4-2.6-0.8c-0.8-0.3-1.5-0.8-2-1.3c-0.5-0.6-0.8-1.3-0.8-2.3c0-1.5,0.5-2.6,1.6-3.4
				c1.1-0.8,2.7-1.2,4.8-1.2c2,0,3.6,0.5,4.7,1.4c1,0.8,1.5,1.9,1.7,3.2H363.5z"/>
		</g>
		<polygon class="st0" points="371,50.3 371,36.2 367.7,36.2 367.7,34.1 371,34.1 371,28.2 373.4,28.2 373.4,34.1 377.2,34.1 
			377.2,36.2 373.4,36.2 373.4,50.3 		"/>
		<path class="st0" d="M379.5,34.1h2.4v16.2h-2.4V34.1z M382.1,31.3h-2.6v-3.2h2.6V31.3z"/>
		<polygon class="st0" points="387.6,50.3 387.6,36.2 384.3,36.2 384.3,34.1 387.6,34.1 387.6,28.2 390,28.2 390,34.1 393.8,34.1 
			393.8,36.2 390,36.2 390,50.3 		"/>
		<g>
			<path class="st0" d="M407.8,50.3v-2.5c-0.6,0.8-1.3,1.4-2.1,2c-0.8,0.5-1.8,0.8-2.9,0.8c-1.1,0-2-0.2-2.8-0.5
				c-0.8-0.3-1.5-0.8-2-1.4c-1.3-1.3-2-3.1-2-5.2v-9.5h2.4v9.4c0,1.5,0.4,2.7,1.3,3.6c0.8,0.9,1.9,1.3,3.3,1.3
				c1.4,0,2.5-0.5,3.5-1.4c1-0.9,1.4-2.1,1.4-3.6v-9.4h2.4v16.2H407.8z"/>
		</g>
		<polygon class="st0" points="415.9,50.3 415.9,36.2 412.6,36.2 412.6,34.1 415.9,34.1 415.9,28.2 418.4,28.2 418.4,34.1 
			422.1,34.1 422.1,36.2 418.4,36.2 418.4,50.3 		"/>
		<g>
			<path class="st0" d="M431.2,36c-1.5,0-2.8,0.5-3.8,1.4c-1,0.9-1.5,2-1.8,3.5h11c-0.2-1.4-0.8-2.6-1.8-3.5
				C433.9,36.5,432.6,36,431.2,36 M431.3,48.3c2.2,0,3.8-0.9,4.7-2.7h2.7c-0.6,1.5-1.5,2.7-2.7,3.6c-1.2,0.9-2.8,1.4-4.7,1.4
				c-2.4,0-4.4-0.8-6-2.4c-1.5-1.6-2.2-3.6-2.2-5.9c0-2.4,0.7-4.4,2.1-5.9c1.5-1.6,3.5-2.4,5.9-2.4c2.4,0,4.4,0.8,5.9,2.4
				c1.4,1.6,2.1,3.5,2.1,5.9v1h-13.6c0.2,1.5,0.8,2.7,1.8,3.7C428.4,47.8,429.7,48.3,431.3,48.3"/>
			<path class="st0" d="M455.4,29.6c-1.1,0-2,0.3-2.6,0.8c-0.6,0.5-0.9,1.3-0.9,2.5v1.2h3.8v2.1H452v14.1h-2.4V36.2h-2.8v-2.1h2.8
				v-1.4c0-1.8,0.5-3.1,1.6-4c1.1-0.9,2.5-1.3,4.4-1.3h0.2v2.3H455.4z"/>
			<path class="st0" d="M464.8,48.3c1.8,0,3.1-0.6,4.2-1.8c1-1.1,1.5-2.6,1.5-4.4c0-1.8-0.5-3.2-1.5-4.4c-1-1.2-2.4-1.8-4.2-1.8
				s-3.1,0.6-4.2,1.8c-1,1.1-1.5,2.6-1.5,4.4c0,1.8,0.5,3.2,1.5,4.4C461.7,47.7,463.1,48.3,464.8,48.3 M464.8,33.8
				c2.4,0,4.4,0.8,5.9,2.4c1.4,1.6,2.1,3.5,2.1,5.9c0,2.4-0.7,4.4-2.1,5.9c-1.5,1.6-3.5,2.4-5.9,2.4c-2.4,0-4.4-0.8-5.9-2.4
				c-1.4-1.6-2.1-3.5-2.1-5.9c0-2.4,0.7-4.4,2.1-5.9C460.4,34.6,462.4,33.8,464.8,33.8"/>
			<path class="st0" d="M484.3,33.8v2.4h-0.3c-1.8,0-3.2,0.7-4.3,2.1c-1,1.3-1.6,2.9-1.6,4.8v7.1h-2.4V34.1h2.4v4
				c0.5-1.7,1.6-2.9,3.4-3.7c0.7-0.3,1.6-0.5,2.6-0.5H484.3z"/>
		</g>
		<polygon class="st0" points="218.5,59.4 218.5,68.9 206,68.9 206,59.4 203.5,59.4 203.5,80.9 206,80.9 206,71.3 218.5,71.3 
			218.5,80.9 220.9,80.9 220.9,59.4 		"/>
		<g>
			<path class="st0" d="M232.1,66.6c-1.5,0-2.7,0.5-3.8,1.4c-1,0.9-1.5,2-1.8,3.5h11c-0.2-1.4-0.8-2.6-1.8-3.5
				C234.8,67.1,233.6,66.6,232.1,66.6 M232.3,78.9c2.2,0,3.8-0.9,4.7-2.7h2.7c-0.6,1.5-1.5,2.7-2.7,3.6c-1.2,0.9-2.8,1.4-4.7,1.4
				c-2.4,0-4.4-0.8-6-2.4c-1.5-1.6-2.2-3.6-2.2-5.9c0-2.4,0.7-4.4,2.1-5.9c1.5-1.6,3.5-2.4,5.9-2.4c2.4,0,4.4,0.8,5.9,2.4
				c1.4,1.6,2.1,3.5,2.1,5.9v1h-13.6c0.2,1.5,0.8,2.7,1.8,3.7C229.3,78.5,230.7,78.9,232.3,78.9"/>
			<path class="st0" d="M250,78.9c1.8,0,3.1-0.6,4.2-1.8c1-1.1,1.5-2.6,1.5-4.4c0-1.8-0.5-3.2-1.5-4.4c-1-1.2-2.4-1.8-4.2-1.8
				c-1.7,0-3.1,0.6-4.2,1.8c-1,1.1-1.5,2.6-1.5,4.4c0,1.8,0.5,3.2,1.5,4.4C246.8,78.3,248.2,78.9,250,78.9 M255.5,78.3
				c-1.3,1.9-3.2,2.9-5.8,2.9c-2.3,0-4.2-0.8-5.7-2.4c-1.4-1.6-2.1-3.6-2.1-5.9c0-2.4,0.7-4.3,2.1-5.9c1.5-1.6,3.4-2.4,5.9-2.4
				s4.3,1,5.7,2.9v-2.6h2.4v16.2h-2.4V78.3z"/>
		</g>
		<rect x="261.8" y="58.2" class="st0" width="2.4" height="22.7"/>
		<polygon class="st0" points="269.9,58.8 269.9,64.7 266.6,64.7 266.6,66.8 269.9,66.8 269.9,80.9 272.3,80.9 272.3,66.8 276,66.8 
			276,64.7 272.3,64.7 272.3,58.8 		"/>
		<g>
			<path class="st0" d="M280.8,58.2v9c0.6-0.8,1.3-1.4,2.1-2c0.8-0.5,1.8-0.8,2.9-0.8c1.1,0,2,0.2,2.8,0.5c0.8,0.3,1.5,0.8,2,1.4
				c1.3,1.3,2,3.1,2,5.2v9.5h-2.4v-9.4c0-1.5-0.4-2.7-1.3-3.6c-0.8-0.9-1.9-1.3-3.3-1.3c-1.4,0-2.5,0.5-3.5,1.4
				c-1,0.9-1.4,2.1-1.4,3.6v9.4h-2.4V58.2H280.8z"/>
			<path class="st0" d="M310.2,78.9c1.8,0,3.1-0.6,4.2-1.8c1-1.1,1.5-2.6,1.5-4.4c0-1.8-0.5-3.2-1.5-4.4c-1-1.2-2.4-1.8-4.2-1.8
				c-1.7,0-3.1,0.6-4.2,1.8c-1,1.1-1.5,2.6-1.5,4.4c0,1.8,0.5,3.2,1.5,4.4C307.1,78.3,308.5,78.9,310.2,78.9 M315.7,78.3
				c-1.3,1.9-3.2,2.9-5.8,2.9c-2.3,0-4.2-0.8-5.7-2.4c-1.4-1.6-2.1-3.6-2.1-5.9c0-2.4,0.7-4.3,2.1-5.9c1.5-1.6,3.4-2.4,5.9-2.4
				c2.4,0,4.3,1,5.6,2.9v-2.6h2.4v16.2h-2.4V78.3z"/>
			<path class="st0" d="M323.8,64.7v2.5c0.6-0.8,1.3-1.4,2.1-2c0.8-0.5,1.8-0.8,2.9-0.8s2,0.2,2.8,0.5c0.8,0.3,1.5,0.8,2,1.4
				c1.3,1.3,2,3.1,2,5.2v9.5h-2.4v-9.4c0-1.5-0.4-2.7-1.3-3.6c-0.8-0.9-1.9-1.3-3.3-1.3c-1.4,0-2.5,0.5-3.5,1.4
				c-1,0.9-1.4,2.1-1.4,3.6v9.4h-2.4V64.7H323.8z"/>
			<path class="st0" d="M346,78.9c1.8,0,3.1-0.6,4.2-1.8c1-1.1,1.5-2.6,1.5-4.4c0-1.8-0.5-3.2-1.5-4.4c-1-1.2-2.4-1.8-4.2-1.8
				c-1.7,0-3.1,0.6-4.2,1.8c-1,1.1-1.5,2.6-1.5,4.4c0,1.8,0.5,3.2,1.5,4.4C342.9,78.3,344.3,78.9,346,78.9 M351.5,78.3
				c-1.3,1.9-3.2,2.9-5.8,2.9c-2.3,0-4.2-0.8-5.7-2.4c-1.4-1.6-2.1-3.6-2.1-5.9c0-2.4,0.7-4.3,2.1-5.9c1.5-1.6,3.4-2.4,5.9-2.4
				c2.4,0,4.3,1,5.7,2.9v-9.1h2.4v22.7h-2.4V78.3z"/>
			<path class="st0" d="M375.1,78.8c1.5,0,2.9-0.4,4-1.2c1.2-0.8,2-1.8,2.6-3.1h2.6c-0.7,2-1.9,3.6-3.5,4.8
				c-1.8,1.3-3.8,1.9-6.2,1.9c-3.1,0-5.7-1.1-7.6-3.2c-1.8-2.1-2.8-4.7-2.8-7.8c0-3.1,0.9-5.7,2.8-7.8c1.9-2.1,4.5-3.2,7.6-3.2
				c2.4,0,4.4,0.6,6.2,1.9c1.6,1.2,2.8,2.8,3.5,4.8h-2.6c-0.6-1.3-1.4-2.4-2.6-3.1c-1.2-0.8-2.5-1.2-4-1.2c-1.5,0-2.8,0.2-3.8,0.7
				c-1,0.4-1.9,1.1-2.6,1.8c-1.4,1.6-2.1,3.6-2.1,6.1c0,2.5,0.7,4.6,2.1,6.1C370.2,78,372.4,78.8,375.1,78.8"/>
			<path class="st0" d="M394.3,78.9c1.8,0,3.1-0.6,4.2-1.8c1-1.1,1.5-2.6,1.5-4.4c0-1.8-0.5-3.2-1.5-4.4c-1-1.2-2.4-1.8-4.2-1.8
				c-1.7,0-3.1,0.6-4.2,1.8c-1,1.1-1.5,2.6-1.5,4.4c0,1.8,0.5,3.2,1.5,4.4C391.2,78.3,392.6,78.9,394.3,78.9 M399.8,78.3
				c-1.3,1.9-3.2,2.9-5.8,2.9c-2.3,0-4.2-0.8-5.7-2.4c-1.4-1.6-2.1-3.6-2.1-5.9c0-2.4,0.7-4.3,2.1-5.9c1.5-1.6,3.4-2.4,5.9-2.4
				c2.4,0,4.3,1,5.6,2.9v-2.6h2.4v16.2h-2.4V78.3z"/>
			<path class="st0" d="M414.7,64.4v2.4h-0.3c-1.8,0-3.2,0.7-4.3,2.1c-1,1.3-1.6,2.9-1.6,4.8v7.1h-2.4V64.7h2.4v4
				c0.5-1.7,1.6-2.9,3.4-3.7c0.7-0.3,1.6-0.5,2.6-0.5H414.7z"/>
			<path class="st0" d="M423.6,66.6c-1.5,0-2.8,0.5-3.8,1.4c-1,0.9-1.5,2-1.8,3.5h11c-0.2-1.4-0.8-2.6-1.8-3.5
				C426.4,67.1,425.1,66.6,423.6,66.6 M423.8,78.9c2.2,0,3.8-0.9,4.7-2.7h2.7c-0.6,1.5-1.5,2.7-2.7,3.6c-1.2,0.9-2.8,1.4-4.7,1.4
				c-2.4,0-4.4-0.8-6-2.4c-1.5-1.6-2.2-3.6-2.2-5.9c0-2.4,0.7-4.4,2.1-5.9c1.5-1.6,3.5-2.4,5.9-2.4c2.4,0,4.4,0.8,5.9,2.4
				c1.4,1.6,2.1,3.5,2.1,5.9v1h-13.6c0.2,1.5,0.8,2.7,1.8,3.7C420.9,78.5,422.2,78.9,423.8,78.9"/>
		</g>
		<polygon class="st0" points="441.5,59.4 441.5,80.9 457.3,80.9 457.3,78.6 443.9,78.6 443.9,71.3 455.8,71.3 455.8,68.9 
			443.9,68.9 443.9,61.7 457.3,61.7 457.3,59.4 		"/>
		<polygon class="st0" points="470.2,64.7 466.1,70.8 461.9,64.7 458.8,64.7 464.6,72.5 458.4,80.9 461.5,80.9 466.1,74.3 
			470.7,80.9 473.8,80.9 467.5,72.5 473.3,64.7 		"/>
		<g>
			<path class="st0" d="M482.5,78.9c1,0,2-0.3,2.8-0.9c0.8-0.6,1.4-1.3,1.8-2.3h2.6c-0.5,1.6-1.4,2.9-2.7,3.9c-1.4,1-3,1.5-4.9,1.5
				c-2.4,0-4.3-0.8-5.8-2.4c-1.5-1.6-2.2-3.6-2.2-5.9c0-2.4,0.7-4.4,2.2-5.9c1.5-1.6,3.4-2.4,5.8-2.4c1.9,0,3.5,0.5,4.9,1.5
				c1.3,1,2.2,2.3,2.7,3.9H487c-0.4-0.9-1-1.7-1.8-2.3c-0.8-0.6-1.7-0.9-2.8-0.9c-1,0-1.9,0.2-2.6,0.5c-0.7,0.3-1.3,0.8-1.8,1.3
				c-1.1,1.2-1.6,2.6-1.6,4.4c0,1.7,0.5,3.2,1.6,4.4C479.1,78.3,480.6,78.9,482.5,78.9"/>
			<path class="st0" d="M499.4,66.6c-1.5,0-2.8,0.5-3.8,1.4c-1,0.9-1.5,2-1.8,3.5h11c-0.2-1.4-0.8-2.6-1.8-3.5
				C502.1,67.1,500.9,66.6,499.4,66.6 M499.6,78.9c2.2,0,3.8-0.9,4.7-2.7h2.7c-0.6,1.5-1.5,2.7-2.7,3.6c-1.2,0.9-2.8,1.4-4.7,1.4
				c-2.4,0-4.4-0.8-6-2.4c-1.5-1.6-2.2-3.6-2.2-5.9c0-2.4,0.7-4.4,2.1-5.9c1.5-1.6,3.5-2.4,5.9-2.4c2.4,0,4.4,0.8,5.9,2.4
				c1.4,1.6,2.1,3.5,2.1,5.9v1h-13.6c0.2,1.5,0.8,2.7,1.8,3.7C496.6,78.5,498,78.9,499.6,78.9"/>
		</g>
		<rect x="510.1" y="58.2" class="st0" width="2.4" height="22.7"/>
		<rect x="516.4" y="58.2" class="st0" width="2.4" height="22.7"/>
		<g>
			<path class="st0" d="M529.8,66.6c-1.5,0-2.8,0.5-3.8,1.4c-1,0.9-1.5,2-1.8,3.5h11c-0.2-1.4-0.8-2.6-1.8-3.5
				C532.5,67.1,531.3,66.6,529.8,66.6 M530,78.9c2.2,0,3.8-0.9,4.7-2.7h2.7c-0.6,1.5-1.5,2.7-2.7,3.6c-1.2,0.9-2.8,1.4-4.7,1.4
				c-2.4,0-4.4-0.8-6-2.4c-1.5-1.6-2.2-3.6-2.2-5.9c0-2.4,0.7-4.4,2.1-5.9c1.5-1.6,3.5-2.4,5.9-2.4c2.4,0,4.4,0.8,5.9,2.4
				c1.4,1.6,2.1,3.5,2.1,5.9v1h-13.6c0.2,1.5,0.8,2.7,1.8,3.7C527.1,78.5,528.4,78.9,530,78.9"/>
			<path class="st0" d="M542.9,64.7v2.5c0.6-0.8,1.3-1.4,2.1-2c0.8-0.5,1.8-0.8,2.9-0.8c1.1,0,2,0.2,2.8,0.5c0.8,0.3,1.5,0.8,2,1.4
				c1.3,1.3,2,3.1,2,5.2v9.5h-2.4v-9.4c0-1.5-0.4-2.7-1.3-3.6c-0.8-0.9-1.9-1.3-3.3-1.3c-1.4,0-2.5,0.5-3.5,1.4
				c-1,0.9-1.4,2.1-1.4,3.6v9.4h-2.4V64.7H542.9z"/>
			<path class="st0" d="M566.1,78.9c1,0,2-0.3,2.8-0.9c0.8-0.6,1.4-1.3,1.8-2.3h2.6c-0.5,1.6-1.4,2.9-2.7,3.9c-1.4,1-3,1.5-4.9,1.5
				c-2.4,0-4.3-0.8-5.8-2.4c-1.5-1.6-2.2-3.6-2.2-5.9c0-2.4,0.7-4.4,2.2-5.9c1.5-1.6,3.4-2.4,5.8-2.4c1.9,0,3.6,0.5,4.9,1.5
				c1.3,1,2.2,2.3,2.7,3.9h-2.6c-0.4-0.9-1-1.7-1.8-2.3c-0.8-0.6-1.7-0.9-2.8-0.9c-1,0-1.9,0.2-2.6,0.5c-0.7,0.3-1.3,0.8-1.8,1.3
				c-1.1,1.2-1.6,2.6-1.6,4.4c0,1.7,0.5,3.2,1.6,4.4C562.7,78.3,564.2,78.9,566.1,78.9"/>
			<path class="st0" d="M582.9,66.6c-1.5,0-2.8,0.5-3.8,1.4c-1,0.9-1.5,2-1.8,3.5h11c-0.2-1.4-0.8-2.6-1.8-3.5
				C585.7,67.1,584.4,66.6,582.9,66.6 M583.1,78.9c2.2,0,3.8-0.9,4.7-2.7h2.7c-0.6,1.5-1.5,2.7-2.7,3.6c-1.2,0.9-2.8,1.4-4.7,1.4
				c-2.4,0-4.4-0.8-6-2.4c-1.5-1.6-2.2-3.6-2.2-5.9c0-2.4,0.7-4.4,2.1-5.9c1.5-1.6,3.5-2.4,5.9-2.4c2.4,0,4.4,0.8,5.9,2.4
				c1.4,1.6,2.1,3.5,2.1,5.9v1h-13.6c0.2,1.5,0.8,2.7,1.8,3.7C580.2,78.5,581.5,78.9,583.1,78.9"/>
		</g>
	</g>
	<path class="st0" d="M74.7,78.6c0,1.9-0.8,2.3-2.2,2.3h-6.3c-1.3,0-2.5-0.5-3.3-1.6L40.8,49.7h-0.1v29c0,1.6-0.7,2.2-2.2,2.2h-6.9
		c-1.7,0-2.5-0.4-2.5-2.2V31.6c0-1.9,0.9-2.3,2.5-2.3h6.3c1.5,0,2.2,0.4,3.1,1.6l22.2,29.8h0.1V31.4c0-1.6,0.8-2.2,2.3-2.2h7.2
		c1.9,0,2.1,1,2.1,2.3V78.6z"/>
	<path class="st0" d="M98.4,79c0,0.9-0.6,1.7-1.6,1.7h-8.6c-1.1,0-1.6-0.8-1.6-1.6V30.8c0-0.9,0.6-1.7,1.6-1.7h8.6
		c1.1,0,1.6,0.8,1.6,1.6V79z"/>
	<path class="st0" d="M148.5,33.5l-2.2,6.3c-0.3,0.7-0.6,1.1-1.1,1.1c-0.3,0-0.6-0.1-1-0.3c-3.9-1.9-7-2.5-10.5-2.5
		C126,38,121,44,121,54.8c0,11.8,5.7,16.8,13,16.8c3.5,0,6.6-0.7,10-2.1c0.4-0.2,0.8-0.3,1.1-0.3c0.7,0,1,0.3,1.3,1.2l1.9,5.5
		c0.1,0.4,0.2,0.8,0.2,1.2c0,0.7-0.3,1.3-1.3,1.6c-5.1,1.9-9.4,2.9-15.1,2.9c-15.8,0-23.7-10.5-23.7-26.5c0-16.1,9.8-27.2,24.7-27.2
		c5.4,0,9.9,1,14.2,3c1,0.4,1.4,1,1.4,1.5C148.7,32.7,148.6,33.1,148.5,33.5"/>
	<path class="st0" d="M189,29.1c1.5,0,1.9,0.7,1.9,1.7l-0.7,6c-0.1,1.6-1.1,1.9-2.9,1.9h-18v11.1h16.9c1.6,0,2.2,0.8,2.2,2v5.4
		c0,1.5-0.7,2.2-2.2,2.2h-17v11.8h19.4c1.3,0,2.2,0.6,2.2,2v5.5c0,1.4-0.7,2.1-2.1,2.1h-28.9c-1.7,0-2.5-0.4-2.5-2.3V31.2
		c0-1.3,0.7-2.1,1.9-2.1H189z"/>
</g>
</svg>
