<svg id="Layer_1" data-name="Layer 1" xmlns="http://www.w3.org/2000/svg" viewBox="0 0 89 29.553">
  <defs>
    <style>
      .cls-1 {
        fill: #222;
      }
    </style>
  </defs>
  <title>NICE-Logo-Black-Small</title>
  <g>
    <path class="cls-1" d="M25.133,27.843c0,1.064-.45,1.27-1.187,1.27H20.466a2.124,2.124,0,0,1-1.8-.9L6.467,11.963H6.386V27.885c0,.9-.41,1.229-1.228,1.229H1.351C.409,29.113,0,28.908,0,27.926V1.975C0,.91.491.707,1.351.707H4.79a1.794,1.794,0,0,1,1.678.858l12.2,16.375h.082V1.893c0-.9.45-1.186,1.27-1.186h3.97c1.064,0,1.146.572,1.146,1.268Z"/>
    <path class="cls-1" d="M38.179,28.078a.892.892,0,0,1-.9.943H32.571a.857.857,0,0,1-.9-.9V1.554a.891.891,0,0,1,.9-.94h4.708a.856.856,0,0,1,.9.9Z"/>
    <path class="cls-1" d="M65.687,3.028,64.5,6.467c-.163.41-.327.614-.613.614a1.558,1.558,0,0,1-.532-.164,12.688,12.688,0,0,0-5.771-1.391c-4.257,0-7,3.275-7,9.25,0,6.469,3.11,9.25,7.123,9.25a14.042,14.042,0,0,0,5.525-1.145,2.262,2.262,0,0,1,.614-.163c.369,0,.573.163.736.654L65.605,26.4a2.038,2.038,0,0,1,.123.654c0,.409-.164.7-.737.9a21.751,21.751,0,0,1-8.309,1.6c-8.678,0-13.057-5.772-13.057-14.572C43.625,6.14,48.987,0,57.214,0a18.546,18.546,0,0,1,7.818,1.637c.573.245.778.532.778.818a1.587,1.587,0,0,1-.123.572"/>
    <path class="cls-1" d="M87.973.614c.818,0,1.064.41,1.023.941l-.369,3.316c-.082.859-.614,1.024-1.6,1.024H77.125v6.1h9.291c.9,0,1.228.451,1.228,1.1v2.989a1.043,1.043,0,0,1-1.186,1.187H77.125v6.468H87.808c.737,0,1.187.326,1.187,1.1v3.029A1,1,0,0,1,87.85,29.02H71.968c-.941,0-1.35-.245-1.35-1.269V1.759A1.013,1.013,0,0,1,71.682.614Z"/>
  </g>
</svg>
