<svg id="Layer_1" data-name="Layer 1" xmlns="http://www.w3.org/2000/svg" viewBox="0 0 364 35.241">
  <defs>
    <style>
      .cls-1 {
        fill: #222;
      }
    </style>
  </defs>
  <title>NICE-Logo-full-Black</title>
  <g>
    <g>
      <polygon class="cls-1" points="125.048 0.967 125.048 14.891 123.218 14.891 114.616 3.134 114.616 14.891 113.039 14.891 113.039 0.967 114.868 0.967 123.471 12.683 123.471 0.967 125.048 0.967"/>
      <path class="cls-1" d="M131.964,13.931a3.327,3.327,0,0,0,2.692-1.178,4.2,4.2,0,0,0,.947-2.818,4.2,4.2,0,0,0-.947-2.819,3.329,3.329,0,0,0-2.692-1.178,3.494,3.494,0,0,0-2.735,1.178,4.092,4.092,0,0,0-.989,2.819,4.089,4.089,0,0,0,.989,2.818,3.491,3.491,0,0,0,2.735,1.178m3.554-.42a4.257,4.257,0,0,1-3.765,1.851,4.767,4.767,0,0,1-3.7-1.578,5.572,5.572,0,0,1-1.388-3.849,5.576,5.576,0,0,1,1.388-3.849,4.888,4.888,0,0,1,3.807-1.577,4.175,4.175,0,0,1,3.66,1.871v-1.7H137.1V15.194h-1.577Z" transform="translate(0 -0.303)"/>
      <polygon class="cls-1" points="140.755 14.891 140.755 5.763 138.61 5.763 138.61 4.375 140.755 4.375 140.755 0.609 142.332 0.609 142.332 4.375 144.752 4.375 144.752 5.763 142.332 5.763 142.332 14.891 140.755 14.891"/>
      <path class="cls-1" d="M146.267,4.677h1.577V15.194h-1.577Zm1.64-1.767h-1.7V.849h1.7Z" transform="translate(0 -0.303)"/>
      <g>
        <path class="cls-1" d="M154.931,13.932a3.328,3.328,0,0,0,2.692-1.178,4.2,4.2,0,0,0,.947-2.819,4.2,4.2,0,0,0-.947-2.818,3.664,3.664,0,0,0-5.384,0,4.2,4.2,0,0,0-.947,2.818,4.206,4.206,0,0,0,.947,2.819,3.33,3.33,0,0,0,2.692,1.178m0-9.423a5,5,0,0,1,3.828,1.577,5.477,5.477,0,0,1,1.389,3.849,5.476,5.476,0,0,1-1.389,3.849,5.434,5.434,0,0,1-7.656,0,5.475,5.475,0,0,1-1.388-3.849A5.477,5.477,0,0,1,151.1,6.086a5,5,0,0,1,3.828-1.577" transform="translate(0 -0.303)"/>
        <path class="cls-1" d="M163.6,4.677V6.318a5.276,5.276,0,0,1,1.388-1.284,3.4,3.4,0,0,1,1.872-.525,5,5,0,0,1,1.809.294,3.673,3.673,0,0,1,1.325.883,4.533,4.533,0,0,1,1.3,3.386v6.121h-1.577V9.115A3.217,3.217,0,0,0,168.9,6.8a2.8,2.8,0,0,0-2.125-.863,3.14,3.14,0,0,0-2.25.884,3.1,3.1,0,0,0-.926,2.314v6.058H162.02V4.677Z" transform="translate(0 -0.303)"/>
        <path class="cls-1" d="M177.958,13.931a3.327,3.327,0,0,0,2.692-1.178,4.2,4.2,0,0,0,.947-2.818,4.2,4.2,0,0,0-.947-2.819,3.329,3.329,0,0,0-2.692-1.178,3.494,3.494,0,0,0-2.735,1.178,4.087,4.087,0,0,0-.988,2.819,4.084,4.084,0,0,0,.988,2.818,3.491,3.491,0,0,0,2.735,1.178m3.555-.42a4.257,4.257,0,0,1-3.766,1.851,4.767,4.767,0,0,1-3.7-1.578,5.57,5.57,0,0,1-1.389-3.849,5.575,5.575,0,0,1,1.389-3.849,4.888,4.888,0,0,1,3.806-1.577,4.176,4.176,0,0,1,3.661,1.871v-1.7h1.577V15.194h-1.577Z" transform="translate(0 -0.303)"/>
      </g>
      <rect class="cls-1" x="185.614" y="0.168" width="1.578" height="14.724"/>
      <rect class="cls-1" x="194.322" y="0.968" width="1.578" height="13.924"/>
      <g>
        <path class="cls-1" d="M200.337,4.677V6.318a5.271,5.271,0,0,1,1.388-1.284,3.4,3.4,0,0,1,1.872-.525,4.991,4.991,0,0,1,1.809.294,3.674,3.674,0,0,1,1.326.883,4.539,4.539,0,0,1,1.3,3.386v6.121h-1.577V9.115a3.215,3.215,0,0,0-.821-2.314,2.8,2.8,0,0,0-2.124-.863,3.14,3.14,0,0,0-2.251.884,3.093,3.093,0,0,0-.925,2.314v6.058h-1.578V4.677Z" transform="translate(0 -0.303)"/>
        <path class="cls-1" d="M216.638,7.5q-.211-1.64-2.64-1.64t-2.429,1.514a1.061,1.061,0,0,0,.515.957,4.707,4.707,0,0,0,1.294.536q.777.211,1.693.39a8.652,8.652,0,0,1,1.693.5,3.6,3.6,0,0,1,1.294.894,2.23,2.23,0,0,1,.516,1.557,2.685,2.685,0,0,1-1.157,2.345,5.373,5.373,0,0,1-3.134.81,5,5,0,0,1-3.344-1.052,3.221,3.221,0,0,1-1.221-2.419h1.641A2.191,2.191,0,0,0,213,13.848a3.654,3.654,0,0,0,1.083.168,7.446,7.446,0,0,0,1-.063,4.05,4.05,0,0,0,.9-.231,1.4,1.4,0,0,0,1.01-1.367,1.131,1.131,0,0,0-.516-1,4.519,4.519,0,0,0-1.293-.568q-.78-.22-1.694-.4a9.058,9.058,0,0,1-1.693-.494,3.6,3.6,0,0,1-1.293-.862,2.121,2.121,0,0,1-.516-1.515A2.62,2.62,0,0,1,211.032,5.3a5.054,5.054,0,0,1,3.081-.789,4.631,4.631,0,0,1,3.05.926A3.034,3.034,0,0,1,218.235,7.5Z" transform="translate(0 -0.303)"/>
      </g>
      <polygon class="cls-1" points="221.517 14.891 221.517 5.763 219.372 5.763 219.372 4.375 221.517 4.375 221.517 0.609 223.094 0.609 223.094 4.375 225.513 4.375 225.513 5.763 223.094 5.763 223.094 14.891 221.517 14.891"/>
      <path class="cls-1" d="M227.027,4.677h1.578V15.194h-1.578Zm1.64-1.767h-1.7V.849h1.7Z" transform="translate(0 -0.303)"/>
      <polygon class="cls-1" points="232.265 14.891 232.265 5.763 230.119 5.763 230.119 4.375 232.265 4.375 232.265 0.609 233.842 0.609 233.842 4.375 236.261 4.375 236.261 5.763 233.842 5.763 233.842 14.891 232.265 14.891"/>
      <path class="cls-1" d="M245.368,15.194V13.553a5.277,5.277,0,0,1-1.389,1.284,3.387,3.387,0,0,1-1.871.525,5.009,5.009,0,0,1-1.809-.294,3.668,3.668,0,0,1-1.325-.884,4.533,4.533,0,0,1-1.3-3.386V4.677h1.577v6.079a3.214,3.214,0,0,0,.821,2.314,2.8,2.8,0,0,0,2.124.863,3.139,3.139,0,0,0,2.25-.884,3.094,3.094,0,0,0,.926-2.314V4.677h1.577V15.194Z" transform="translate(0 -0.303)"/>
      <polygon class="cls-1" points="250.605 14.891 250.605 5.763 248.46 5.763 248.46 4.375 250.605 4.375 250.605 0.609 252.182 0.609 252.182 4.375 254.602 4.375 254.602 5.763 252.182 5.763 252.182 14.891 250.605 14.891"/>
      <g>
        <path class="cls-1" d="M260.47,5.94a3.479,3.479,0,0,0-2.44.9,3.737,3.737,0,0,0-1.135,2.251h7.151a3.734,3.734,0,0,0-1.136-2.251,3.479,3.479,0,0,0-2.439-.9m.126,7.992a3.18,3.18,0,0,0,3.05-1.767h1.726a5.08,5.08,0,0,1-1.736,2.314,5,5,0,0,1-3.061.883,5.088,5.088,0,0,1-3.87-1.577,5.382,5.382,0,0,1-1.451-3.849,5.474,5.474,0,0,1,1.389-3.849,5.432,5.432,0,0,1,7.656,0,5.473,5.473,0,0,1,1.388,3.849v.631h-8.813a3.808,3.808,0,0,0,1.157,2.4,3.554,3.554,0,0,0,2.566.967" transform="translate(0 -0.303)"/>
        <path class="cls-1" d="M276.2,1.8a2.456,2.456,0,0,0-1.672.494,2.022,2.022,0,0,0-.557,1.588v.8h2.44V6.065h-2.44v9.129H272.4V6.065h-1.809V4.677H272.4V3.752a3.182,3.182,0,0,1,1.03-2.588A4.33,4.33,0,0,1,276.287.3h.126V1.8Z" transform="translate(0 -0.303)"/>
        <path class="cls-1" d="M282.281,13.932a3.332,3.332,0,0,0,2.693-1.178,4.206,4.206,0,0,0,.946-2.819,4.2,4.2,0,0,0-.946-2.818,3.665,3.665,0,0,0-5.385,0,4.2,4.2,0,0,0-.946,2.818,4.206,4.206,0,0,0,.946,2.819,3.331,3.331,0,0,0,2.693,1.178m0-9.423a4.994,4.994,0,0,1,3.827,1.577A5.476,5.476,0,0,1,287.5,9.935a5.474,5.474,0,0,1-1.389,3.849,5.434,5.434,0,0,1-7.655,0,5.473,5.473,0,0,1-1.388-3.849,5.475,5.475,0,0,1,1.388-3.849,5,5,0,0,1,3.828-1.577" transform="translate(0 -0.303)"/>
        <path class="cls-1" d="M294.922,4.509V6.086h-.189a3.37,3.37,0,0,0-2.776,1.368,4.936,4.936,0,0,0-1.01,3.113v4.627H289.37V4.677h1.577V7.265a3.986,3.986,0,0,1,3.87-2.756Z" transform="translate(0 -0.303)"/>
      </g>
      <polygon class="cls-1" points="122.714 20.787 122.714 26.971 114.616 26.971 114.616 20.787 113.039 20.787 113.039 34.712 114.616 34.712 114.616 28.507 122.714 28.507 122.714 34.712 124.291 34.712 124.291 20.787 122.714 20.787"/>
      <g>
        <path class="cls-1" d="M131.527,25.76a3.479,3.479,0,0,0-2.44.9,3.731,3.731,0,0,0-1.135,2.25H135.1a3.737,3.737,0,0,0-1.136-2.25,3.477,3.477,0,0,0-2.44-.9m.126,7.992a3.183,3.183,0,0,0,3.05-1.768h1.724a5.08,5.08,0,0,1-1.735,2.315,5,5,0,0,1-3.06.883,5.087,5.087,0,0,1-3.87-1.577,5.383,5.383,0,0,1-1.451-3.849,5.474,5.474,0,0,1,1.388-3.849,5.432,5.432,0,0,1,7.656,0,5.474,5.474,0,0,1,1.389,3.849v.631H127.93a3.82,3.82,0,0,0,1.157,2.4,3.555,3.555,0,0,0,2.567.968" transform="translate(0 -0.303)"/>
        <path class="cls-1" d="M143.116,33.751a3.327,3.327,0,0,0,2.692-1.177,4.2,4.2,0,0,0,.947-2.818,4.2,4.2,0,0,0-.947-2.818,3.33,3.33,0,0,0-2.692-1.178,3.5,3.5,0,0,0-2.735,1.178,4.09,4.09,0,0,0-.989,2.818,4.088,4.088,0,0,0,.989,2.818,3.492,3.492,0,0,0,2.735,1.177m3.554-.42a4.256,4.256,0,0,1-3.765,1.851,4.766,4.766,0,0,1-3.7-1.578,5.568,5.568,0,0,1-1.388-3.849,5.571,5.571,0,0,1,1.388-3.849,4.885,4.885,0,0,1,3.806-1.578,4.175,4.175,0,0,1,3.66,1.872V24.5h1.577V35.015h-1.577Z" transform="translate(0 -0.303)"/>
      </g>
      <rect class="cls-1" x="150.772" y="19.988" width="1.577" height="14.724"/>
      <polygon class="cls-1" points="156.009 20.43 156.009 24.195 153.864 24.195 153.864 25.583 156.009 25.583 156.009 34.711 157.586 34.711 157.586 25.583 160.005 25.583 160.005 24.195 157.586 24.195 157.586 20.43 156.009 20.43"/>
      <g>
        <path class="cls-1" d="M163.1,20.291v5.848a5.266,5.266,0,0,1,1.388-1.284,3.4,3.4,0,0,1,1.872-.525,5,5,0,0,1,1.809.295,3.675,3.675,0,0,1,1.325.883,4.535,4.535,0,0,1,1.3,3.386v6.121h-1.577V28.935a3.219,3.219,0,0,0-.821-2.313,2.8,2.8,0,0,0-2.124-.863,3.136,3.136,0,0,0-2.251.883,3.1,3.1,0,0,0-.926,2.313v6.058H161.52V20.291Z" transform="translate(0 -0.303)"/>
        <path class="cls-1" d="M182.132,33.751a3.326,3.326,0,0,0,2.692-1.177,4.2,4.2,0,0,0,.947-2.818,4.2,4.2,0,0,0-.947-2.818,3.329,3.329,0,0,0-2.692-1.178,3.5,3.5,0,0,0-2.735,1.178,4.512,4.512,0,0,0,0,5.637,3.5,3.5,0,0,0,2.735,1.177m3.555-.42a4.255,4.255,0,0,1-3.764,1.851,4.766,4.766,0,0,1-3.7-1.578,5.567,5.567,0,0,1-1.388-3.849,5.57,5.57,0,0,1,1.388-3.849,4.885,4.885,0,0,1,3.808-1.578,4.172,4.172,0,0,1,3.659,1.872V24.5h1.578V35.015h-1.578Z" transform="translate(0 -0.303)"/>
        <path class="cls-1" d="M190.961,24.5v1.641a5.266,5.266,0,0,1,1.388-1.284,3.4,3.4,0,0,1,1.872-.525,4.988,4.988,0,0,1,1.809.295,3.669,3.669,0,0,1,1.326.883,4.536,4.536,0,0,1,1.3,3.386v6.121h-1.577V28.935a3.221,3.221,0,0,0-.82-2.313,2.8,2.8,0,0,0-2.125-.863,3.137,3.137,0,0,0-2.25.883,3.09,3.09,0,0,0-.926,2.313v6.058h-1.578V24.5Z" transform="translate(0 -0.303)"/>
        <path class="cls-1" d="M205.322,33.751a3.327,3.327,0,0,0,2.692-1.177,4.2,4.2,0,0,0,.947-2.818,4.2,4.2,0,0,0-.947-2.818,3.33,3.33,0,0,0-2.692-1.178,3.5,3.5,0,0,0-2.735,1.178,4.512,4.512,0,0,0,0,5.637,3.492,3.492,0,0,0,2.735,1.177m3.555-.42a4.256,4.256,0,0,1-3.765,1.851,4.766,4.766,0,0,1-3.7-1.578,5.567,5.567,0,0,1-1.389-3.849,5.57,5.57,0,0,1,1.389-3.849,4.884,4.884,0,0,1,3.807-1.578,4.173,4.173,0,0,1,3.66,1.872v-5.91h1.577V35.015h-1.577Z" transform="translate(0 -0.303)"/>
        <path class="cls-1" d="M224.193,33.647a4.52,4.52,0,0,0,4.291-2.8h1.662a6.249,6.249,0,0,1-2.292,3.113,6.718,6.718,0,0,1-4.018,1.22,6.365,6.365,0,0,1-4.943-2.083,7.284,7.284,0,0,1-1.787-5.047A7.287,7.287,0,0,1,218.893,23a6.367,6.367,0,0,1,4.943-2.082,6.723,6.723,0,0,1,4.018,1.219,6.252,6.252,0,0,1,2.292,3.113h-1.662a4.519,4.519,0,0,0-4.291-2.8,6.244,6.244,0,0,0-2.482.432,4.7,4.7,0,0,0-1.662,1.189,5.755,5.755,0,0,0-1.367,3.975,5.757,5.757,0,0,0,1.367,3.976,5.239,5.239,0,0,0,4.143,1.619" transform="translate(0 -0.303)"/>
        <path class="cls-1" d="M236.6,33.751a3.329,3.329,0,0,0,2.692-1.177,4.2,4.2,0,0,0,.947-2.818,4.2,4.2,0,0,0-.947-2.818,3.332,3.332,0,0,0-2.692-1.178,3.5,3.5,0,0,0-2.735,1.178,4.09,4.09,0,0,0-.988,2.818,4.088,4.088,0,0,0,.988,2.818,3.492,3.492,0,0,0,2.735,1.177m3.554-.42a4.255,4.255,0,0,1-3.765,1.851,4.768,4.768,0,0,1-3.7-1.578,5.57,5.57,0,0,1-1.388-3.849,5.573,5.573,0,0,1,1.388-3.849,4.887,4.887,0,0,1,3.808-1.578,4.173,4.173,0,0,1,3.659,1.872V24.5h1.578V35.015h-1.578Z" transform="translate(0 -0.303)"/>
        <path class="cls-1" d="M249.811,24.329v1.577h-.19a3.37,3.37,0,0,0-2.776,1.368,4.929,4.929,0,0,0-1.01,3.113v4.627h-1.578V24.5h1.578v2.588a3.986,3.986,0,0,1,3.87-2.756Z" transform="translate(0 -0.303)"/>
        <path class="cls-1" d="M255.6,25.76a3.476,3.476,0,0,0-2.44.9,3.729,3.729,0,0,0-1.135,2.25h7.151a3.734,3.734,0,0,0-1.135-2.25,3.479,3.479,0,0,0-2.44-.9m.126,7.992a3.181,3.181,0,0,0,3.05-1.768H260.5a5.082,5.082,0,0,1-1.735,2.315,5.008,5.008,0,0,1-3.061.883,5.088,5.088,0,0,1-3.87-1.577,5.383,5.383,0,0,1-1.451-3.849,5.472,5.472,0,0,1,1.389-3.849,5.432,5.432,0,0,1,7.655,0,5.476,5.476,0,0,1,1.388,3.849v.631H252a3.807,3.807,0,0,0,1.157,2.4,3.553,3.553,0,0,0,2.565.968" transform="translate(0 -0.303)"/>
      </g>
      <polygon class="cls-1" points="267.143 20.787 267.143 34.712 277.387 34.712 277.387 33.196 268.72 33.196 268.72 28.507 276.461 28.507 276.461 26.971 268.72 26.971 268.72 22.302 277.387 22.302 277.387 20.787 267.143 20.787"/>
      <polygon class="cls-1" points="285.779 24.195 283.087 28.171 280.373 24.195 278.354 24.195 282.161 29.284 278.102 34.711 280.1 34.711 283.087 30.421 286.052 34.711 288.072 34.711 283.991 29.284 287.798 24.195 285.779 24.195"/>
      <g>
        <path class="cls-1" d="M293.707,33.752a2.951,2.951,0,0,0,1.788-.567,3.284,3.284,0,0,0,1.136-1.473h1.7a4.8,4.8,0,0,1-1.767,2.5,5.326,5.326,0,0,1-3.2.968,4.882,4.882,0,0,1-3.766-1.577,5.473,5.473,0,0,1-1.409-3.849,5.471,5.471,0,0,1,1.409-3.849,4.883,4.883,0,0,1,3.766-1.578,5.331,5.331,0,0,1,3.2.968,4.8,4.8,0,0,1,1.767,2.5h-1.7a3.282,3.282,0,0,0-1.136-1.472,2.951,2.951,0,0,0-1.788-.567,4.187,4.187,0,0,0-1.714.315,3.439,3.439,0,0,0-1.188.862,4.37,4.37,0,0,0,0,5.637,3.689,3.689,0,0,0,2.9,1.178" transform="translate(0 -0.303)"/>
        <path class="cls-1" d="M304.645,25.76a3.476,3.476,0,0,0-2.44.9,3.734,3.734,0,0,0-1.135,2.25h7.151a3.738,3.738,0,0,0-1.135-2.25,3.482,3.482,0,0,0-2.441-.9m.126,7.992a3.183,3.183,0,0,0,3.051-1.768h1.725a5.082,5.082,0,0,1-1.735,2.315,5.006,5.006,0,0,1-3.061.883,5.088,5.088,0,0,1-3.87-1.577,5.386,5.386,0,0,1-1.451-3.849,5.472,5.472,0,0,1,1.389-3.849,5.432,5.432,0,0,1,7.655,0,5.472,5.472,0,0,1,1.388,3.849v.631h-8.813a3.807,3.807,0,0,0,1.157,2.4,3.553,3.553,0,0,0,2.565.968" transform="translate(0 -0.303)"/>
      </g>
      <rect class="cls-1" x="311.586" y="19.988" width="1.577" height="14.724"/>
      <rect class="cls-1" x="315.687" y="19.988" width="1.578" height="14.724"/>
      <g>
        <path class="cls-1" d="M324.352,25.76a3.474,3.474,0,0,0-2.439.9,3.73,3.73,0,0,0-1.136,2.25h7.151a3.734,3.734,0,0,0-1.135-2.25,3.477,3.477,0,0,0-2.44-.9m.126,7.992a3.182,3.182,0,0,0,3.05-1.768h1.725a5.08,5.08,0,0,1-1.735,2.315,5.008,5.008,0,0,1-3.061.883,5.085,5.085,0,0,1-3.869-1.577,5.38,5.38,0,0,1-1.452-3.849,5.473,5.473,0,0,1,1.389-3.849,5.432,5.432,0,0,1,7.655,0,5.472,5.472,0,0,1,1.388,3.849v.631h-8.813a3.812,3.812,0,0,0,1.158,2.4,3.551,3.551,0,0,0,2.565.968" transform="translate(0 -0.303)"/>
        <path class="cls-1" d="M332.872,24.5v1.641a5.275,5.275,0,0,1,1.387-1.284,3.4,3.4,0,0,1,1.873-.525,4.983,4.983,0,0,1,1.808.295,3.655,3.655,0,0,1,1.326.883,4.536,4.536,0,0,1,1.3,3.386v6.121h-1.577V28.935a3.214,3.214,0,0,0-.821-2.313,2.8,2.8,0,0,0-2.125-.863,3.139,3.139,0,0,0-2.25.883,3.1,3.1,0,0,0-.925,2.313v6.058h-1.578V24.5Z" transform="translate(0 -0.303)"/>
        <path class="cls-1" d="M347.847,33.752a2.955,2.955,0,0,0,1.788-.567,3.282,3.282,0,0,0,1.135-1.473h1.7a4.794,4.794,0,0,1-1.768,2.5,5.324,5.324,0,0,1-3.2.968,4.879,4.879,0,0,1-3.765-1.577,5.474,5.474,0,0,1-1.41-3.849,5.472,5.472,0,0,1,1.41-3.849,4.88,4.88,0,0,1,3.765-1.578,5.33,5.33,0,0,1,3.2.968,4.8,4.8,0,0,1,1.768,2.5h-1.7a3.28,3.28,0,0,0-1.135-1.472,2.955,2.955,0,0,0-1.788-.567,4.181,4.181,0,0,0-1.714.315,3.434,3.434,0,0,0-1.189.862,4.367,4.367,0,0,0,0,5.637,3.69,3.69,0,0,0,2.9,1.178" transform="translate(0 -0.303)"/>
        <path class="cls-1" d="M358.784,25.76a3.474,3.474,0,0,0-2.439.9,3.73,3.73,0,0,0-1.136,2.25h7.151a3.737,3.737,0,0,0-1.135-2.25,3.481,3.481,0,0,0-2.441-.9m.126,7.992a3.183,3.183,0,0,0,3.05-1.768h1.725A5.08,5.08,0,0,1,361.95,34.3a5.009,5.009,0,0,1-3.061.883,5.085,5.085,0,0,1-3.869-1.577,5.383,5.383,0,0,1-1.452-3.849,5.476,5.476,0,0,1,1.389-3.849,5.433,5.433,0,0,1,7.656,0A5.475,5.475,0,0,1,364,29.755v.631h-8.812a3.807,3.807,0,0,0,1.157,2.4,3.551,3.551,0,0,0,2.565.968" transform="translate(0 -0.303)"/>
      </g>
    </g>
    <path class="cls-1" d="M29.6,33.53c0,1.254-.531,1.5-1.4,1.5h-4.1a2.5,2.5,0,0,1-2.122-1.062L7.618,14.824h-.1V33.578c0,1.061-.483,1.447-1.447,1.447H1.592c-1.11,0-1.592-.242-1.592-1.4V3.058C0,1.8.578,1.564,1.592,1.564h4.05A2.113,2.113,0,0,1,7.618,2.575L21.986,21.864h.1V2.962c0-1.061.53-1.4,1.5-1.4h4.677c1.254,0,1.35.673,1.35,1.494Z" transform="translate(0 -0.303)"/>
    <path class="cls-1" d="M44.973,33.806a1.05,1.05,0,0,1-1.06,1.11H38.367a1.01,1.01,0,0,1-1.06-1.061V2.563a1.049,1.049,0,0,1,1.06-1.108h5.546a1.009,1.009,0,0,1,1.06,1.06Z" transform="translate(0 -0.303)"/>
    <path class="cls-1" d="M77.376,4.3l-1.4,4.051c-.192.483-.385.723-.723.723a1.835,1.835,0,0,1-.627-.193,14.945,14.945,0,0,0-6.8-1.638c-5.015,0-8.245,3.857-8.245,10.9,0,7.621,3.663,10.9,8.39,10.9a16.541,16.541,0,0,0,6.509-1.349,2.664,2.664,0,0,1,.723-.192c.435,0,.675.192.867.771l1.206,3.568a2.4,2.4,0,0,1,.145.771c0,.482-.193.82-.868,1.06a25.622,25.622,0,0,1-9.787,1.882c-10.223,0-15.381-6.8-15.381-17.165C51.388,7.964,57.7.732,67.4.732A21.846,21.846,0,0,1,76.6,2.66c.675.289.917.627.917.964a1.869,1.869,0,0,1-.145.674" transform="translate(0 -0.303)"/>
    <path class="cls-1" d="M103.628,1.455c.964,0,1.253.483,1.2,1.108L104.4,6.469c-.1,1.012-.723,1.206-1.88,1.206H90.85v7.182h10.944c1.063,0,1.447.531,1.447,1.3V19.68a1.229,1.229,0,0,1-1.4,1.4H90.85V28.7h12.584c.868,0,1.4.384,1.4,1.3v3.568a1.18,1.18,0,0,1-1.35,1.348H84.774c-1.109,0-1.59-.289-1.59-1.494V2.8a1.193,1.193,0,0,1,1.254-1.349Z" transform="translate(0 -0.303)"/>
  </g>
</svg>
