<svg id="Layer_1" data-name="Layer 1" xmlns="http://www.w3.org/2000/svg" viewBox="0 0 104.837 34.812">
  <defs>
    <style>
      .cls-1 {
        fill: #222;
      }
    </style>
  </defs>
  <title>NICE-Logo-Black</title>
  <g>
    <path class="cls-1" d="M29.6,33.53c0,1.254-.531,1.5-1.4,1.5h-4.1a2.5,2.5,0,0,1-2.122-1.062L7.618,14.824h-.1V33.578c0,1.061-.483,1.447-1.447,1.447H1.592c-1.11,0-1.592-.242-1.592-1.4V3.058C0,1.8.578,1.564,1.592,1.564h4.05A2.113,2.113,0,0,1,7.618,2.575L21.986,21.864h.1V2.962c0-1.061.53-1.4,1.5-1.4h4.677c1.254,0,1.35.673,1.35,1.494Z" transform="translate(0 -0.732)"/>
    <path class="cls-1" d="M44.973,33.806a1.05,1.05,0,0,1-1.06,1.11H38.367a1.01,1.01,0,0,1-1.06-1.061V2.563a1.049,1.049,0,0,1,1.06-1.108h5.546a1.009,1.009,0,0,1,1.06,1.06Z" transform="translate(0 -0.732)"/>
    <path class="cls-1" d="M77.376,4.3l-1.4,4.051c-.192.483-.385.723-.723.723a1.835,1.835,0,0,1-.627-.193,14.945,14.945,0,0,0-6.8-1.638c-5.015,0-8.245,3.857-8.245,10.9,0,7.621,3.663,10.9,8.39,10.9a16.541,16.541,0,0,0,6.509-1.349,2.664,2.664,0,0,1,.723-.192c.435,0,.675.192.867.771l1.206,3.568a2.4,2.4,0,0,1,.145.771c0,.482-.193.82-.868,1.06a25.622,25.622,0,0,1-9.787,1.882c-10.223,0-15.381-6.8-15.381-17.165C51.388,7.964,57.7.732,67.4.732A21.846,21.846,0,0,1,76.6,2.66c.675.289.917.627.917.964a1.869,1.869,0,0,1-.145.674" transform="translate(0 -0.732)"/>
    <path class="cls-1" d="M103.628,1.455c.964,0,1.253.483,1.2,1.108L104.4,6.469c-.1,1.012-.723,1.206-1.88,1.206H90.85v7.182h10.944c1.063,0,1.447.531,1.447,1.3V19.68a1.229,1.229,0,0,1-1.4,1.4H90.85V28.7h12.584c.868,0,1.4.384,1.4,1.3v3.568a1.18,1.18,0,0,1-1.35,1.348H84.774c-1.109,0-1.59-.289-1.59-1.494V2.8a1.193,1.193,0,0,1,1.254-1.349Z" transform="translate(0 -0.732)"/>
  </g>
</svg>
